<svg data-v-423bf9ae="" xmlns="http://www.w3.org/2000/svg" viewBox="0 0 480 90" class="iconLeft"><!----><!----><!----><g data-v-423bf9ae="" id="949100ff-1f7b-46d0-a58d-63a85e431e39" fill="#FFFFFF" transform="matrix(4.66562963859453,0,0,4.66562963859453,97.33777615436449,-0.0699833448129965)"><path d="M0.52 4.98L0.52 4.98L0.52 4.98Q0.44 4.89 0.39 4.79L0.39 4.79L0.39 4.79Q0.34 4.68 0.31 4.58L0.31 4.58L0.31 4.58Q0.27 4.47 0.27 4.35L0.27 4.35L0.27 4.35Q0.26 4.24 0.27 4.13L0.27 4.13L0.27 4.13Q0.29 4.05 0.30 3.96L0.30 3.96L0.30 3.96Q0.31 3.87 0.37 3.83L0.37 3.83L0.37 3.83Q0.48 3.80 0.62 3.78L0.62 3.78L0.62 3.78Q0.77 3.76 0.89 3.73L0.89 3.73L0.89 3.73Q1.04 3.71 1.19 3.68L1.19 3.68L1.19 3.68Q1.24 3.60 1.42 3.51L1.42 3.51L1.42 3.51Q1.59 3.42 1.78 3.35L1.78 3.35L1.78 3.35Q1.98 3.28 2.16 3.25L2.16 3.25L2.16 3.25Q2.34 3.21 2.41 3.25L2.41 3.25L2.41 3.54L2.41 3.54Q2.76 3.50 3.14 3.47L3.14 3.47L3.14 3.47Q3.53 3.43 3.96 3.43L3.96 3.43L3.96 3.43Q4.50 3.42 4.96 3.40L4.96 3.40L4.96 3.40Q5.36 3.39 5.76 3.40L5.76 3.40L5.76 3.40Q6.17 3.40 6.38 3.42L6.38 3.42L6.38 3.42Q6.49 3.43 6.56 3.58L6.56 3.58L6.56 3.58Q6.62 3.72 6.60 3.94L6.60 3.94L6.60 3.94Q6.58 4.16 6.45 4.42L6.45 4.42L6.45 4.42Q6.33 4.68 6.07 4.91L6.07 4.91L6.07 4.91Q5.74 4.84 5.39 4.80L5.39 4.80L5.39 4.80Q5.03 4.76 4.73 4.73L4.73 4.73L4.73 4.73Q4.38 4.70 4.05 4.72L4.05 4.72L4.05 4.72Q3.62 4.72 3.21 4.74L3.21 4.74L3.21 4.74Q2.80 4.76 2.42 4.79L2.42 4.79L2.42 4.79Q2.43 5.46 2.44 6.31L2.44 6.31L2.44 6.31Q2.45 7.16 2.46 8.04L2.46 8.04L2.46 8.04Q2.64 8.03 2.82 8.01L2.82 8.01L2.82 8.01Q2.99 8.00 3.19 7.98L3.19 7.98L3.19 7.98Q3.68 7.96 4.15 7.93L4.15 7.93L4.15 7.93Q4.62 7.90 4.97 7.95L4.97 7.95L4.97 7.95Q5.32 8.00 5.50 8.16L5.50 8.16L5.50 8.16Q5.67 8.33 5.58 8.68L5.58 8.68L5.39 9.34L5.39 9.34Q5.36 9.27 5.24 9.22L5.24 9.22L5.24 9.22Q5.13 9.17 4.98 9.15L4.98 9.15L4.98 9.15Q4.81 9.11 4.61 9.08L4.61 9.08L4.61 9.08Q4.13 9.02 3.55 9.06L3.55 9.06L3.55 9.06Q2.98 9.11 2.46 9.19L2.46 9.19L2.46 9.20L2.46 9.20Q2.47 10.40 2.45 11.20L2.45 11.20L2.45 11.20Q2.43 11.99 2.41 12.43L2.41 12.43L2.41 12.43Q2.58 12.40 2.75 12.39L2.75 12.39L2.75 12.39Q2.93 12.37 3.12 12.35L3.12 12.35L3.12 12.35Q3.61 12.30 4.14 12.29L4.14 12.29L4.14 12.29Q4.59 12.28 5.15 12.28L5.15 12.28L5.15 12.28Q5.70 12.29 6.22 12.36L6.22 12.36L6.22 12.36Q6.30 12.50 6.28 12.71L6.28 12.71L6.28 12.71Q6.25 12.93 6.18 13.14L6.18 13.14L6.18 13.14Q6.10 13.38 5.97 13.66L5.97 13.66L5.97 13.66Q5.36 13.59 4.79 13.56L4.79 13.56L4.79 13.56Q4.21 13.54 3.76 13.52L3.76 13.52L3.76 13.52Q3.23 13.51 2.76 13.52L2.76 13.52L2.76 13.52Q1.91 13.49 1.42 13.61L1.42 13.61L1.42 13.61Q0.93 13.73 0.72 13.78L0.72 13.78L0.72 13.78Q0.59 13.82 0.52 13.74L0.52 13.74L0.52 13.74Q0.45 13.66 0.37 13.47L0.37 13.47L0.37 13.47Q0.29 13.29 0.31 12.96L0.31 12.96L0.31 12.96Q0.31 12.93 0.33 12.89L0.33 12.89L0.33 12.89Q0.34 12.84 0.41 12.81L0.41 12.81L0.41 12.81Q0.49 12.78 0.67 12.74L0.67 12.74L0.67 12.74Q0.85 12.70 1.11 12.65L1.11 12.65L1.11 12.65Q1.13 12.09 1.15 11.22L1.15 11.22L1.15 11.22Q1.16 10.36 1.19 9.47L1.19 9.47L1.19 9.47Q0.96 9.43 0.78 9.10L0.78 9.10L0.78 9.10Q0.60 8.76 0.62 8.35L0.62 8.35L0.62 8.35Q0.70 8.33 0.80 8.31L0.80 8.31L0.80 8.31Q0.90 8.30 1.00 8.27L1.00 8.27L1.00 8.27Q1.11 8.24 1.22 8.23L1.22 8.23L1.22 8.23Q1.23 7.88 1.23 7.59L1.23 7.59L1.23 7.59Q1.23 7.30 1.24 7.08L1.24 7.08L1.24 7.08Q1.27 6.51 1.26 5.94L1.26 5.94L1.26 5.94Q1.24 5.37 1.23 4.89L1.23 4.89L1.23 4.89Q1.11 4.91 0.97 4.92L0.97 4.92L0.97 4.92Q0.86 4.94 0.74 4.95L0.74 4.95L0.74 4.95Q0.62 4.96 0.52 4.98ZM8.65 11.85L8.65 11.85L8.65 11.85Q8.78 11.85 8.98 11.42L8.98 11.42L8.98 11.42Q9.19 10.98 9.37 10.36L9.37 10.36L9.37 10.36Q9.56 9.75 9.67 9.09L9.67 9.09L9.67 9.09Q9.79 8.44 9.73 7.98L9.73 7.98L9.73 7.98Q9.71 7.83 9.66 7.74L9.66 7.74L9.66 7.74Q9.61 7.64 9.54 7.53L9.54 7.53L9.54 7.53Q9.63 7.42 9.75 7.36L9.75 7.36L9.75 7.36Q9.87 7.30 9.98 7.27L9.98 7.27L9.98 7.27Q10.12 7.23 10.25 7.22L10.25 7.22L10.25 7.22Q10.58 7.21 10.73 7.33L10.73 7.33L10.73 7.33Q10.81 7.41 10.81 7.71L10.81 7.71L10.81 7.71Q10.81 8.01 10.75 8.42L10.75 8.42L10.75 8.42Q10.69 8.82 10.59 9.26L10.59 9.26L10.59 9.26Q10.49 9.71 10.36 10.08L10.36 10.08L10.36 10.08Q10.24 10.43 10.06 10.85L10.06 10.85L10.06 10.85Q9.88 11.27 9.69 11.64L9.69 11.64L9.69 11.64Q9.50 12.02 9.31 12.28L9.31 12.28L9.31 12.28Q9.12 12.55 8.98 12.61L8.98 12.61L8.98 12.61Q8.70 12.71 8.42 12.71L8.42 12.71L8.42 12.71Q8.13 12.71 8.07 12.65L8.07 12.65L8.07 12.65Q8.04 12.62 7.94 12.46L7.94 12.46L7.94 12.46Q7.85 12.29 7.73 12.03L7.73 12.03L7.73 12.03Q7.62 11.77 7.49 11.42L7.49 11.42L7.49 11.42Q7.36 11.07 7.26 10.68L7.26 10.68L7.26 10.68Q7.16 10.28 7.12 9.82L7.12 9.82L7.12 9.82Q7.08 9.35 7.03 8.91L7.03 8.91L7.03 8.91Q6.99 8.46 6.90 8.08L6.90 8.08L6.90 8.08Q6.82 7.70 6.66 7.45L6.66 7.45L7.30 7.19L7.30 7.19Q7.38 7.15 7.49 7.12L7.49 7.12L7.49 7.12Q7.60 7.08 7.71 7.10L7.71 7.10L7.71 7.10Q7.82 7.11 7.91 7.20L7.91 7.20L7.91 7.20Q8.00 7.29 8.03 7.51L8.03 7.51L8.03 7.51Q8.05 7.75 8.07 8.09L8.07 8.09L8.07 8.09Q8.09 8.44 8.11 8.80L8.11 8.80L8.11 8.80Q8.13 9.17 8.16 9.54L8.16 9.54L8.16 9.54Q8.19 9.90 8.22 10.19L8.22 10.19L8.22 10.19Q8.24 10.49 8.29 10.79L8.29 10.79L8.29 10.79Q8.34 11.09 8.40 11.32L8.40 11.32L8.40 11.32Q8.46 11.55 8.52 11.70L8.52 11.70L8.52 11.70Q8.59 11.85 8.65 11.85ZM13.37 12.71L13.37 12.71L13.37 12.71Q12.41 12.71 11.89 12.07L11.89 12.07L11.89 12.07Q11.38 11.43 11.38 10.39L11.38 10.39L11.38 10.39Q11.38 9.67 11.59 9.03L11.59 9.03L11.59 9.03Q11.80 8.39 12.15 7.93L12.15 7.93L12.15 7.93Q12.51 7.46 12.98 7.20L12.98 7.20L12.98 7.20Q13.45 6.93 13.97 6.93L13.97 6.93L13.97 6.93Q14.48 6.93 14.83 7.29L14.83 7.29L14.83 7.29Q15.19 7.66 15.19 8.33L15.19 8.33L15.19 8.33Q15.19 8.76 15.00 9.19L15.00 9.19L15.00 9.19Q14.81 9.63 14.50 9.96L14.50 9.96L14.50 9.96Q14.19 10.29 13.82 10.50L13.82 10.50L13.82 10.50Q13.45 10.71 13.11 10.71L13.11 10.71L13.11 10.71Q12.89 10.71 12.74 10.65L12.74 10.65L12.74 10.65Q12.59 10.60 12.47 10.49L12.47 10.49L12.47 10.49Q12.51 11.27 12.81 11.57L12.81 11.57L12.81 11.57Q13.11 11.88 13.59 11.88L13.59 11.88L13.59 11.88Q13.92 11.88 14.17 11.74L14.17 11.74L14.17 11.74Q14.42 11.61 14.60 11.43L14.60 11.43L14.60 11.43Q14.78 11.25 14.89 11.07L14.89 11.07L14.89 11.07Q15.00 10.88 15.04 10.79L15.04 10.79L15.04 10.79Q15.08 10.71 15.18 10.71L15.18 10.71L15.18 10.71Q15.29 10.71 15.29 10.87L15.29 10.87L15.29 10.87Q15.29 11.02 15.18 11.33L15.18 11.33L15.18 11.33Q15.08 11.63 14.85 11.94L14.85 11.94L14.85 11.94Q14.62 12.25 14.25 12.48L14.25 12.48L14.25 12.48Q13.89 12.71 13.37 12.71ZM14 7.52L14 7.52L14 7.52Q13.92 7.52 13.69 7.69L13.69 7.69L13.69 7.69Q13.47 7.86 13.21 8.19L13.21 8.19L13.21 8.19Q12.96 8.52 12.75 8.98L12.75 8.98L12.75 8.98Q12.54 9.43 12.48 10.01L12.48 10.01L12.48 10.01Q13.30 9.82 13.78 9.41L13.78 9.41L13.78 9.41Q14.26 9.00 14.26 8.20L14.26 8.20L14.26 8.20Q14.26 7.81 14.16 7.66L14.16 7.66L14.16 7.66Q14.07 7.52 14 7.52ZM19.78 8.37L19.78 8.37L19.78 8.37Q19.78 8.56 19.68 8.76L19.68 8.76L19.68 8.76Q19.58 8.96 19.43 9.13L19.43 9.13L19.43 9.13Q19.28 9.31 19.09 9.44L19.09 9.44L19.09 9.44Q18.91 9.57 18.74 9.60L18.74 9.60L18.74 9.60Q18.85 9.17 18.81 8.94L18.81 8.94L18.81 8.94Q18.77 8.71 18.68 8.60L18.68 8.60L18.68 8.60Q18.57 8.48 18.40 8.46L18.40 8.46L18.40 8.46Q18.16 8.46 17.93 8.74L17.93 8.74L17.93 8.74Q17.71 9.02 17.54 9.43L17.54 9.43L17.54 9.43Q17.38 9.83 17.28 10.29L17.28 10.29L17.28 10.29Q17.19 10.75 17.19 11.12L17.19 11.12L17.19 11.12Q17.17 11.38 17.20 11.62L17.20 11.62L17.20 11.62Q17.21 11.83 17.25 12.04L17.25 12.04L17.25 12.04Q17.28 12.26 17.35 12.39L17.35 12.39L17.35 12.39Q17.27 12.46 17.08 12.55L17.08 12.55L17.08 12.55Q16.90 12.65 16.70 12.67L16.70 12.67L16.70 12.67Q16.50 12.70 16.34 12.61L16.34 12.61L16.34 12.61Q16.19 12.51 16.17 12.20L16.17 12.20L16.17 12.20Q16.15 11.89 16.14 11.52L16.14 11.52L16.14 11.52Q16.13 11.14 16.14 10.77L16.14 10.77L16.14 10.77Q16.15 10.39 16.16 10.02L16.16 10.02L16.16 10.02Q16.17 9.65 16.20 9.34L16.20 9.34L16.20 9.34Q16.23 8.74 16.23 8.41L16.23 8.41L16.23 8.41Q16.23 8.08 16.21 7.78L16.21 7.78L16.21 7.78Q16.21 7.72 16.40 7.62L16.40 7.62L16.40 7.62Q16.58 7.52 16.81 7.44L16.81 7.44L16.81 7.44Q17.04 7.36 17.23 7.34L17.23 7.34L17.23 7.34Q17.42 7.33 17.42 7.42L17.42 7.42L17.42 7.42Q17.42 7.57 17.38 8.02L17.38 8.02L17.38 8.02Q17.35 8.46 17.29 8.94L17.29 8.94L17.29 8.94Q17.39 8.68 17.55 8.38L17.55 8.38L17.55 8.38Q17.71 8.08 17.91 7.82L17.91 7.82L17.91 7.82Q18.12 7.56 18.38 7.39L18.38 7.39L18.38 7.39Q18.63 7.22 18.95 7.22L18.95 7.22L18.95 7.22Q19.20 7.22 19.35 7.37L19.35 7.37L19.35 7.37Q19.51 7.52 19.61 7.71L19.61 7.71L19.61 7.71Q19.70 7.90 19.74 8.09L19.74 8.09L19.74 8.09Q19.78 8.29 19.78 8.37ZM24.27 7.31L24.27 7.31L24.27 7.31Q24.29 8.52 24.31 9.42L24.31 9.42L24.31 9.42Q24.32 10.32 24.34 10.94L24.34 10.94L24.34 10.94Q24.35 11.66 24.35 12.18L24.35 12.18L24.35 12.18Q24.36 12.82 24.25 13.51L24.25 13.51L24.25 13.51Q24.13 14.21 23.87 14.78L23.87 14.78L23.87 14.78Q23.61 15.35 23.19 15.72L23.19 15.72L23.19 15.72Q22.76 16.09 22.16 16.09L22.16 16.09L22.16 16.09Q21.44 16.09 21.05 15.80L21.05 15.80L21.05 15.80Q20.67 15.50 20.49 15.13L20.49 15.13L20.49 15.13Q20.32 14.77 20.29 14.44L20.29 14.44L20.29 14.44Q20.26 14.12 20.26 14.07L20.26 14.07L20.26 14.07Q20.26 13.96 20.40 13.82L20.40 13.82L20.40 13.82Q20.54 13.69 20.81 13.58L20.81 13.58L20.81 13.58Q20.92 13.54 21.03 13.51L21.03 13.51L21.03 13.51Q21.12 13.48 21.22 13.47L21.22 13.47L21.22 13.47Q21.31 13.45 21.40 13.48L21.40 13.48L21.40 13.48Q21.26 13.73 21.24 14.04L21.24 14.04L21.24 14.04Q21.22 14.36 21.32 14.64L21.32 14.64L21.32 14.64Q21.42 14.92 21.63 15.11L21.63 15.11L21.63 15.11Q21.83 15.30 22.15 15.30L22.15 15.30L22.15 15.30Q22.59 15.30 22.84 15.05L22.84 15.05L22.84 15.05Q23.09 14.79 23.22 14.42L23.22 14.42L23.22 14.42Q23.35 14.05 23.39 13.64L23.39 13.64L23.39 13.64Q23.42 13.23 23.42 12.92L23.42 12.92L23.42 12.92Q23.42 12.67 23.41 12.28L23.41 12.28L23.41 12.28Q23.41 11.89 23.37 11.42L23.37 11.42L23.37 11.42Q23.20 11.69 22.98 11.94L22.98 11.94L22.98 11.94Q22.76 12.20 22.52 12.39L22.52 12.39L22.52 12.39Q22.27 12.58 22.02 12.69L22.02 12.69L22.02 12.69Q21.77 12.81 21.52 12.81L21.52 12.81L21.52 12.81Q21.10 12.81 20.84 12.54L20.84 12.54L20.84 12.54Q20.58 12.28 20.44 11.87L20.44 11.87L20.44 11.87Q20.30 11.47 20.25 11.00L20.25 11.00L20.25 11.00Q20.21 10.53 20.21 10.13L20.21 10.13L20.21 10.13Q20.21 9.83 20.23 9.40L20.23 9.40L20.23 9.40Q20.26 8.97 20.30 8.57L20.30 8.57L20.30 8.57Q20.34 8.18 20.41 7.88L20.41 7.88L20.41 7.88Q20.47 7.59 20.54 7.55L20.54 7.55L20.54 7.55Q20.93 7.31 21.31 7.29L21.31 7.29L21.31 7.29Q21.70 7.26 21.89 7.38L21.89 7.38L21.89 7.38Q21.72 7.51 21.62 7.79L21.62 7.79L21.62 7.79Q21.51 8.08 21.44 8.43L21.44 8.43L21.44 8.43Q21.37 8.78 21.34 9.15L21.34 9.15L21.34 9.15Q21.31 9.53 21.31 9.83L21.31 9.83L21.31 9.83Q21.31 10.08 21.33 10.42L21.33 10.42L21.33 10.42Q21.34 10.76 21.39 11.07L21.39 11.07L21.39 11.07Q21.44 11.39 21.53 11.61L21.53 11.61L21.53 11.61Q21.63 11.83 21.78 11.83L21.78 11.83L21.78 11.83Q22.08 11.83 22.34 11.61L22.34 11.61L22.34 11.61Q22.60 11.39 22.80 11.06L22.80 11.06L22.80 11.06Q23.00 10.73 23.11 10.36L23.11 10.36L23.11 10.36Q23.21 9.98 23.21 9.65L23.21 9.65L23.21 9.54L23.21 9.54Q23.19 9.19 23.16 8.87L23.16 8.87L23.16 8.87Q23.13 8.54 23.11 8.29L23.11 8.29L23.11 8.29Q23.09 8.03 23.08 7.85L23.08 7.85L23.08 7.85Q23.08 7.68 23.08 7.63L23.08 7.63L23.08 7.63Q23.08 7.49 23.26 7.38L23.26 7.38L23.26 7.38Q23.45 7.27 23.67 7.23L23.67 7.23L23.67 7.23Q23.90 7.18 24.08 7.19L24.08 7.19L24.08 7.19Q24.27 7.21 24.27 7.31ZM25.53 4.05L25.53 4.05L25.53 4.05Q25.63 3.90 25.76 3.79L25.76 3.79L25.76 3.79Q25.89 3.68 26.03 3.61L26.03 3.61L26.03 3.61Q26.18 3.54 26.35 3.50L26.35 3.50L26.35 3.50Q26.47 3.47 26.58 3.47L26.58 3.47L26.58 3.47Q26.67 3.47 26.76 3.49L26.76 3.49L26.76 3.49Q26.85 3.50 26.91 3.55L26.91 3.55L26.91 3.55Q26.88 4.21 26.86 4.67L26.86 4.67L26.86 4.67Q26.84 5.13 26.82 5.47L26.82 5.47L26.82 5.47Q26.80 5.81 26.78 6.08L26.78 6.08L26.78 6.08Q26.77 6.34 26.75 6.62L26.75 6.62L26.75 6.62Q26.73 6.89 26.70 7.21L26.70 7.21L26.70 7.21Q26.67 7.53 26.65 7.98L26.65 7.98L26.65 7.98Q26.62 8.27 26.61 8.57L26.61 8.57L26.61 8.57Q26.59 8.86 26.58 9.16L26.58 9.16L26.58 9.16Q26.70 8.82 26.89 8.45L26.89 8.45L26.89 8.45Q27.07 8.08 27.32 7.78L27.32 7.78L27.32 7.78Q27.56 7.48 27.88 7.28L27.88 7.28L27.88 7.28Q28.19 7.08 28.56 7.08L28.56 7.08L28.56 7.08Q29.08 7.08 29.39 7.38L29.39 7.38L29.39 7.38Q29.71 7.68 29.87 8.11L29.87 8.11L29.87 8.11Q30.04 8.54 30.08 9.02L30.08 9.02L30.08 9.02Q30.13 9.50 30.13 9.87L30.13 9.87L30.13 9.87Q30.13 10.23 30.04 10.71L30.04 10.71L30.04 10.71Q29.96 11.20 29.73 11.64L29.73 11.64L29.73 11.64Q29.50 12.09 29.13 12.40L29.13 12.40L29.13 12.40Q28.77 12.71 28.21 12.71L28.21 12.71L28.21 12.71Q27.81 12.71 27.54 12.55L27.54 12.55L27.54 12.55Q27.26 12.39 27.08 12.17L27.08 12.17L27.08 12.17Q26.91 11.95 26.83 11.73L26.83 11.73L26.83 11.73Q26.76 11.51 26.76 11.42L26.76 11.42L26.76 11.42Q26.76 11.32 26.82 11.19L26.82 11.19L26.82 11.19Q26.89 11.06 26.99 10.94L26.99 10.94L26.99 10.94Q27.08 10.83 27.19 10.75L27.19 10.75L27.19 10.75Q27.30 10.68 27.37 10.69L27.37 10.69L27.37 10.69Q27.34 11.14 27.43 11.38L27.43 11.38L27.43 11.38Q27.52 11.62 27.64 11.73L27.64 11.73L27.64 11.73Q27.79 11.87 27.97 11.88L27.97 11.88L27.97 11.88Q28.23 11.88 28.43 11.63L28.43 11.63L28.43 11.63Q28.63 11.39 28.77 11.03L28.77 11.03L28.77 11.03Q28.90 10.68 28.98 10.26L28.98 10.26L28.98 10.26Q29.05 9.84 29.05 9.52L29.05 9.52L29.05 9.52Q29.05 9.27 29.02 8.99L29.02 8.99L29.02 8.99Q28.98 8.71 28.92 8.47L28.92 8.47L28.92 8.47Q28.85 8.23 28.72 8.08L28.72 8.08L28.72 8.08Q28.60 7.93 28.42 7.93L28.42 7.93L28.42 7.93Q28.12 7.93 27.79 8.27L27.79 8.27L27.79 8.27Q27.47 8.61 27.19 9.17L27.19 9.17L27.19 9.17Q26.92 9.72 26.74 10.42L26.74 10.42L26.74 10.42Q26.56 11.12 26.58 11.84L26.58 11.84L26.58 11.84Q26.58 12.03 26.60 12.17L26.60 12.17L26.60 12.17Q26.62 12.32 26.65 12.43L26.65 12.43L26.65 12.43Q26.32 12.56 26.13 12.59L26.13 12.59L26.13 12.59Q26.02 12.62 25.95 12.61L25.95 12.61L25.95 12.61Q25.76 12.61 25.63 12.50L25.63 12.50L25.63 12.50Q25.51 12.39 25.48 12.03L25.48 12.03L25.48 12.03Q25.47 11.91 25.47 11.35L25.47 11.35L25.47 11.35Q25.47 10.80 25.47 10.01L25.47 10.01L25.47 10.01Q25.47 9.23 25.48 8.31L25.48 8.31L25.48 8.31Q25.48 7.40 25.49 6.55L25.49 6.55L25.49 6.55Q25.50 5.70 25.50 5.02L25.50 5.02L25.50 5.02Q25.51 4.35 25.53 4.05ZM34.03 7.48L34.03 7.48L34.03 7.48Q34.03 7.33 34.21 7.25L34.21 7.25L34.21 7.25Q34.40 7.18 34.61 7.18L34.61 7.18L34.61 7.18Q34.82 7.18 35 7.25L35 7.25L35 7.25Q35.18 7.33 35.16 7.45L35.16 7.45L35.16 7.45Q35.15 7.55 35.14 7.83L35.14 7.83L35.14 7.83Q35.12 8.11 35.10 8.49L35.10 8.49L35.10 8.49Q35.08 8.87 35.05 9.31L35.05 9.31L35.05 9.31Q35.03 9.75 35.01 10.17L35.01 10.17L35.01 10.17Q34.99 10.58 34.98 10.94L34.98 10.94L34.98 10.94Q34.97 11.29 34.97 11.48L34.97 11.48L34.97 11.48Q34.97 11.73 35 11.94L35 11.94L35 11.94Q35.03 12.11 35.07 12.28L35.07 12.28L35.07 12.28Q35.11 12.46 35.19 12.52L35.19 12.52L35.19 12.52Q35.08 12.56 34.97 12.58L34.97 12.58L34.97 12.58Q34.85 12.59 34.75 12.61L34.75 12.61L34.75 12.61Q34.64 12.62 34.54 12.62L34.54 12.62L34.54 12.62Q34.30 12.62 34.15 12.52L34.15 12.52L34.15 12.52Q33.99 12.43 33.99 12.13L33.99 12.13L33.99 12.13Q33.99 11.98 34.01 11.69L34.01 11.69L34.01 11.69Q34.03 11.40 34.06 11.07L34.06 11.07L34.06 11.07Q33.96 11.36 33.82 11.66L33.82 11.66L33.82 11.66Q33.69 11.96 33.49 12.20L33.49 12.20L33.49 12.20Q33.29 12.43 33.04 12.58L33.04 12.58L33.04 12.58Q32.80 12.73 32.48 12.73L32.48 12.73L32.48 12.73Q32.13 12.73 31.83 12.58L31.83 12.58L31.83 12.58Q31.54 12.43 31.32 12.15L31.32 12.15L31.32 12.15Q31.10 11.87 30.99 11.46L30.99 11.46L30.99 11.46Q30.88 11.05 30.91 10.51L30.91 10.51L30.91 10.51Q30.91 10.10 30.93 9.64L30.93 9.64L30.93 9.64Q30.94 9.24 30.97 8.72L30.97 8.72L30.97 8.72Q30.99 8.20 31.06 7.64L31.06 7.64L31.06 7.64Q31.08 7.59 31.25 7.51L31.25 7.51L31.25 7.51Q31.43 7.42 31.65 7.37L31.65 7.37L31.65 7.37Q31.87 7.31 32.07 7.33L32.07 7.33L32.07 7.33Q32.28 7.34 32.38 7.49L32.38 7.49L32.38 7.49Q32.31 7.74 32.24 8.07L32.24 8.07L32.24 8.07Q32.17 8.41 32.12 8.76L32.12 8.76L32.12 8.76Q32.06 9.12 32.03 9.46L32.03 9.46L32.03 9.46Q32.01 9.80 32.01 10.09L32.01 10.09L32.01 10.09Q32.01 10.35 32.03 10.66L32.03 10.66L32.03 10.66Q32.06 10.96 32.14 11.23L32.14 11.23L32.14 11.23Q32.21 11.50 32.35 11.68L32.35 11.68L32.35 11.68Q32.50 11.85 32.73 11.85L32.73 11.85L32.73 11.85Q32.99 11.85 33.19 11.63L33.19 11.63L33.19 11.63Q33.39 11.40 33.52 11.05L33.52 11.05L33.52 11.05Q33.66 10.69 33.76 10.23L33.76 10.23L33.76 10.23Q33.85 9.78 33.91 9.32L33.91 9.32L33.91 9.32Q33.97 8.87 34.00 8.46L34.00 8.46L34.00 8.46Q34.02 8.04 34.03 7.75L34.03 7.75L34.03 7.48ZM40.56 3.88L40.56 3.88L40.56 3.88Q40.56 4.03 40.54 4.47L40.54 4.47L40.54 4.47Q40.51 4.91 40.47 5.52L40.47 5.52L40.47 5.52Q40.43 6.14 40.39 6.88L40.39 6.88L40.39 6.88Q40.35 7.62 40.32 8.38L40.32 8.38L40.32 8.38Q40.29 9.15 40.27 9.81L40.27 9.81L40.27 9.81Q40.25 10.47 40.26 10.99L40.26 10.99L40.26 10.99Q40.26 11.51 40.30 11.86L40.30 11.86L40.30 11.86Q40.35 12.21 40.43 12.33L40.43 12.33L39.81 12.56L39.81 12.56Q39.74 12.59 39.65 12.59L39.65 12.59L39.65 12.59Q39.55 12.59 39.45 12.54L39.45 12.54L39.45 12.54Q39.35 12.48 39.28 12.35L39.28 12.35L39.28 12.35Q39.21 12.21 39.21 11.96L39.21 11.96L39.21 11.96Q39.21 11.87 39.22 11.72L39.22 11.72L39.22 11.72Q39.22 11.58 39.22 11.39L39.22 11.39L39.22 11.39Q39.06 11.66 38.87 11.92L38.87 11.92L38.87 11.92Q38.68 12.18 38.45 12.37L38.45 12.37L38.45 12.37Q38.23 12.56 37.97 12.68L37.97 12.68L37.97 12.68Q37.71 12.80 37.42 12.80L37.42 12.80L37.42 12.80Q37.15 12.80 36.89 12.68L36.89 12.68L36.89 12.68Q36.63 12.56 36.42 12.33L36.42 12.33L36.42 12.33Q36.22 12.10 36.09 11.73L36.09 11.73L36.09 11.73Q35.96 11.36 35.96 10.84L35.96 10.84L35.96 10.84Q35.96 9.90 36.18 9.19L36.18 9.19L36.18 9.19Q36.39 8.49 36.73 8.02L36.73 8.02L36.73 8.02Q37.06 7.55 37.45 7.31L37.45 7.31L37.45 7.31Q37.84 7.07 38.17 7.07L38.17 7.07L38.17 7.07Q38.68 7.07 38.95 7.33L38.95 7.33L38.95 7.33Q39.22 7.60 39.35 7.89L39.35 7.89L39.35 7.89Q39.36 7.49 39.37 7.14L39.37 7.14L39.37 7.14Q39.38 6.79 39.38 6.55L39.38 6.55L39.38 6.55Q39.38 5.54 39.33 4.74L39.33 4.74L39.33 4.74Q39.29 3.95 39.13 3.54L39.13 3.54L39.13 3.54Q39.32 3.43 39.48 3.38L39.48 3.38L39.48 3.38Q39.63 3.32 39.76 3.29L39.76 3.29L39.76 3.29Q39.91 3.25 40.02 3.25L40.02 3.25L40.02 3.25Q40.32 3.25 40.44 3.42L40.44 3.42L40.44 3.42Q40.56 3.60 40.56 3.88ZM39.27 10.23L39.27 10.23L39.27 10.23Q39.29 9.87 39.30 9.48L39.30 9.48L39.30 9.48Q39.31 9.09 39.32 8.70L39.32 8.70L39.32 8.70Q39.22 8.85 39.09 8.96L39.09 8.96L39.09 8.96Q38.96 9.06 38.81 9.01L38.81 9.01L38.81 9.01Q38.87 8.60 38.81 8.38L38.81 8.38L38.81 8.38Q38.75 8.16 38.64 8.05L38.64 8.05L38.64 8.05Q38.51 7.93 38.35 7.92L38.35 7.92L38.35 7.92Q38.10 7.92 37.86 8.19L37.86 8.19L37.86 8.19Q37.63 8.46 37.44 8.87L37.44 8.87L37.44 8.87Q37.26 9.27 37.15 9.73L37.15 9.73L37.15 9.73Q37.04 10.19 37.04 10.57L37.04 10.57L37.04 10.57Q37.04 11.33 37.25 11.63L37.25 11.63L37.25 11.63Q37.46 11.94 37.71 11.94L37.71 11.94L37.71 11.94Q37.91 11.94 38.14 11.77L38.14 11.77L38.14 11.77Q38.36 11.61 38.58 11.35L38.58 11.35L38.58 11.35Q38.79 11.09 38.97 10.79L38.97 10.79L38.97 10.79Q39.16 10.50 39.27 10.23ZM45.80 3.88L45.80 3.88L45.80 3.88Q45.80 4.03 45.77 4.47L45.77 4.47L45.77 4.47Q45.75 4.91 45.71 5.52L45.71 5.52L45.71 5.52Q45.66 6.14 45.62 6.88L45.62 6.88L45.62 6.88Q45.58 7.62 45.55 8.38L45.55 8.38L45.55 8.38Q45.53 9.15 45.51 9.81L45.51 9.81L45.51 9.81Q45.49 10.47 45.49 10.99L45.49 10.99L45.49 10.99Q45.50 11.51 45.54 11.86L45.54 11.86L45.54 11.86Q45.58 12.21 45.66 12.33L45.66 12.33L45.05 12.56L45.05 12.56Q44.98 12.59 44.88 12.59L44.88 12.59L44.88 12.59Q44.79 12.59 44.69 12.54L44.69 12.54L44.69 12.54Q44.58 12.48 44.52 12.35L44.52 12.35L44.52 12.35Q44.45 12.21 44.45 11.96L44.45 11.96L44.45 11.96Q44.45 11.87 44.45 11.72L44.45 11.72L44.45 11.72Q44.46 11.58 44.46 11.39L44.46 11.39L44.46 11.39Q44.30 11.66 44.11 11.92L44.11 11.92L44.11 11.92Q43.91 12.18 43.69 12.37L43.69 12.37L43.69 12.37Q43.46 12.56 43.20 12.68L43.20 12.68L43.20 12.68Q42.94 12.80 42.66 12.80L42.66 12.80L42.66 12.80Q42.38 12.80 42.12 12.68L42.12 12.68L42.12 12.68Q41.86 12.56 41.66 12.33L41.66 12.33L41.66 12.33Q41.45 12.10 41.32 11.73L41.32 11.73L41.32 11.73Q41.19 11.36 41.19 10.84L41.19 10.84L41.19 10.84Q41.19 9.90 41.41 9.19L41.41 9.19L41.41 9.19Q41.63 8.49 41.97 8.02L41.97 8.02L41.97 8.02Q42.30 7.55 42.69 7.31L42.69 7.31L42.69 7.31Q43.08 7.07 43.41 7.07L43.41 7.07L43.41 7.07Q43.91 7.07 44.19 7.33L44.19 7.33L44.19 7.33Q44.46 7.60 44.58 7.89L44.58 7.89L44.58 7.89Q44.60 7.49 44.60 7.14L44.60 7.14L44.60 7.14Q44.61 6.79 44.61 6.55L44.61 6.55L44.61 6.55Q44.61 5.54 44.57 4.74L44.57 4.74L44.57 4.74Q44.53 3.95 44.37 3.54L44.37 3.54L44.37 3.54Q44.56 3.43 44.71 3.38L44.71 3.38L44.71 3.38Q44.87 3.32 44.99 3.29L44.99 3.29L44.99 3.29Q45.14 3.25 45.25 3.25L45.25 3.25L45.25 3.25Q45.55 3.25 45.68 3.42L45.68 3.42L45.68 3.42Q45.80 3.60 45.80 3.88ZM44.50 10.23L44.50 10.23L44.50 10.23Q44.53 9.87 44.54 9.48L44.54 9.48L44.54 9.48Q44.54 9.09 44.56 8.70L44.56 8.70L44.56 8.70Q44.46 8.85 44.33 8.96L44.33 8.96L44.33 8.96Q44.20 9.06 44.05 9.01L44.05 9.01L44.05 9.01Q44.11 8.60 44.04 8.38L44.04 8.38L44.04 8.38Q43.98 8.16 43.87 8.05L43.87 8.05L43.87 8.05Q43.75 7.93 43.59 7.92L43.59 7.92L43.59 7.92Q43.34 7.92 43.10 8.19L43.10 8.19L43.10 8.19Q42.86 8.46 42.68 8.87L42.68 8.87L42.68 8.87Q42.49 9.27 42.38 9.73L42.38 9.73L42.38 9.73Q42.27 10.19 42.27 10.57L42.27 10.57L42.27 10.57Q42.27 11.33 42.49 11.63L42.49 11.63L42.49 11.63Q42.70 11.94 42.94 11.94L42.94 11.94L42.94 11.94Q43.15 11.94 43.37 11.77L43.37 11.77L43.37 11.77Q43.60 11.61 43.81 11.35L43.81 11.35L43.81 11.35Q44.02 11.09 44.21 10.79L44.21 10.79L44.21 10.79Q44.39 10.50 44.50 10.23ZM50.64 7.31L50.64 7.31L50.64 7.31Q50.67 8.52 50.68 9.42L50.68 9.42L50.68 9.42Q50.70 10.32 50.71 10.94L50.71 10.94L50.71 10.94Q50.72 11.66 50.72 12.18L50.72 12.18L50.72 12.18Q50.74 12.82 50.62 13.51L50.62 13.51L50.62 13.51Q50.50 14.21 50.24 14.78L50.24 14.78L50.24 14.78Q49.98 15.35 49.56 15.72L49.56 15.72L49.56 15.72Q49.14 16.09 48.54 16.09L48.54 16.09L48.54 16.09Q47.81 16.09 47.43 15.80L47.43 15.80L47.43 15.80Q47.04 15.50 46.87 15.13L46.87 15.13L46.87 15.13Q46.69 14.77 46.66 14.44L46.66 14.44L46.66 14.44Q46.63 14.12 46.63 14.07L46.63 14.07L46.63 14.07Q46.63 13.96 46.77 13.82L46.77 13.82L46.77 13.82Q46.91 13.69 47.18 13.58L47.18 13.58L47.18 13.58Q47.29 13.54 47.40 13.51L47.40 13.51L47.40 13.51Q47.50 13.48 47.59 13.47L47.59 13.47L47.59 13.47Q47.69 13.45 47.77 13.48L47.77 13.48L47.77 13.48Q47.63 13.73 47.61 14.04L47.61 14.04L47.61 14.04Q47.59 14.36 47.69 14.64L47.69 14.64L47.69 14.64Q47.80 14.92 48.00 15.11L48.00 15.11L48.00 15.11Q48.21 15.30 48.52 15.30L48.52 15.30L48.52 15.30Q48.96 15.30 49.21 15.05L49.21 15.05L49.21 15.05Q49.46 14.79 49.59 14.42L49.59 14.42L49.59 14.42Q49.72 14.05 49.76 13.64L49.76 13.64L49.76 13.64Q49.79 13.23 49.79 12.92L49.79 12.92L49.79 12.92Q49.79 12.67 49.79 12.28L49.79 12.28L49.79 12.28Q49.78 11.89 49.74 11.42L49.74 11.42L49.74 11.42Q49.57 11.69 49.36 11.94L49.36 11.94L49.36 11.94Q49.14 12.20 48.89 12.39L48.89 12.39L48.89 12.39Q48.64 12.58 48.39 12.69L48.39 12.69L48.39 12.69Q48.14 12.81 47.89 12.81L47.89 12.81L47.89 12.81Q47.47 12.81 47.21 12.54L47.21 12.54L47.21 12.54Q46.95 12.28 46.81 11.87L46.81 11.87L46.81 11.87Q46.68 11.47 46.63 11.00L46.63 11.00L46.63 11.00Q46.58 10.53 46.58 10.13L46.58 10.13L46.58 10.13Q46.58 9.83 46.61 9.40L46.61 9.40L46.61 9.40Q46.63 8.97 46.68 8.57L46.68 8.57L46.68 8.57Q46.72 8.18 46.78 7.88L46.78 7.88L46.78 7.88Q46.84 7.59 46.91 7.55L46.91 7.55L46.91 7.55Q47.30 7.31 47.69 7.29L47.69 7.29L47.69 7.29Q48.07 7.26 48.26 7.38L48.26 7.38L48.26 7.38Q48.10 7.51 47.99 7.79L47.99 7.79L47.99 7.79Q47.88 8.08 47.81 8.43L47.81 8.43L47.81 8.43Q47.74 8.78 47.71 9.15L47.71 9.15L47.71 9.15Q47.69 9.53 47.69 9.83L47.69 9.83L47.69 9.83Q47.69 10.08 47.70 10.42L47.70 10.42L47.70 10.42Q47.71 10.76 47.76 11.07L47.76 11.07L47.76 11.07Q47.81 11.39 47.91 11.61L47.91 11.61L47.91 11.61Q48.00 11.83 48.15 11.83L48.15 11.83L48.15 11.83Q48.45 11.83 48.71 11.61L48.71 11.61L48.71 11.61Q48.97 11.39 49.17 11.06L49.17 11.06L49.17 11.06Q49.37 10.73 49.48 10.36L49.48 10.36L49.48 10.36Q49.59 9.98 49.59 9.65L49.59 9.65L49.59 9.54L49.59 9.54Q49.56 9.19 49.53 8.87L49.53 8.87L49.53 8.87Q49.51 8.54 49.49 8.29L49.49 8.29L49.49 8.29Q49.46 8.03 49.46 7.85L49.46 7.85L49.46 7.85Q49.45 7.68 49.45 7.63L49.45 7.63L49.45 7.63Q49.45 7.49 49.64 7.38L49.64 7.38L49.64 7.38Q49.82 7.27 50.05 7.23L50.05 7.23L50.05 7.23Q50.27 7.18 50.46 7.19L50.46 7.19L50.46 7.19Q50.64 7.21 50.64 7.31ZM51.71 6.69L51.71 5.73L51.71 5.73Q51.71 5.29 51.71 4.76L51.71 4.76L51.71 4.76Q51.72 4.22 51.72 3.68L51.72 3.68L51.72 3.68Q51.87 3.53 52.08 3.44L52.08 3.44L52.08 3.44Q52.29 3.35 52.49 3.31L52.49 3.31L52.49 3.31Q52.71 3.25 52.94 3.25L52.94 3.25L52.94 3.25Q52.83 4.03 52.77 4.70L52.77 4.70L52.77 4.70Q52.72 5.37 52.69 5.87L52.69 5.87L52.69 5.87Q52.65 6.44 52.64 6.92L52.64 6.92L52.64 6.92Q52.55 6.99 52.45 6.99L52.45 6.99L52.45 6.99Q52.34 7 52.21 6.97L52.21 6.97L52.21 6.97Q52.08 6.93 51.95 6.86L51.95 6.86L51.95 6.86Q51.82 6.78 51.71 6.69L51.71 6.69ZM55.67 9.97L55.67 9.97L55.67 9.97Q55.97 10.08 56.25 10.17L56.25 10.17L56.25 10.17Q56.52 10.27 56.72 10.40L56.72 10.40L56.72 10.40Q56.93 10.54 57.05 10.73L57.05 10.73L57.05 10.73Q57.18 10.91 57.18 11.18L57.18 11.18L57.18 11.18Q57.18 11.51 57.03 11.80L57.03 11.80L57.03 11.80Q56.89 12.09 56.62 12.30L56.62 12.30L56.62 12.30Q56.34 12.52 55.95 12.65L55.95 12.65L55.95 12.65Q55.56 12.78 55.08 12.78L55.08 12.78L55.08 12.78Q54.55 12.78 54.22 12.68L54.22 12.68L54.22 12.68Q53.89 12.58 53.72 12.44L53.72 12.44L53.72 12.44Q53.54 12.30 53.48 12.17L53.48 12.17L53.48 12.17Q53.43 12.03 53.43 11.95L53.43 11.95L53.43 11.95Q53.43 11.79 53.50 11.59L53.50 11.59L53.50 11.59Q53.57 11.39 53.76 11.16L53.76 11.16L53.76 11.16Q53.84 11.06 53.94 10.98L53.94 10.98L53.94 10.98Q54.13 10.81 54.32 10.77L54.32 10.77L54.32 10.77Q54.29 11.09 54.39 11.29L54.39 11.29L54.39 11.29Q54.50 11.48 54.67 11.59L54.67 11.59L54.67 11.59Q54.84 11.70 55.05 11.74L55.05 11.74L55.05 11.74Q55.26 11.79 55.45 11.79L55.45 11.79L55.45 11.79Q55.64 11.79 55.84 11.73L55.84 11.73L55.84 11.73Q56.04 11.68 56.21 11.59L56.21 11.59L56.21 11.59Q56.37 11.50 56.47 11.38L56.47 11.38L56.47 11.38Q56.57 11.27 56.57 11.13L56.57 11.13L56.57 11.13Q56.57 10.98 56.45 10.88L56.45 10.88L56.45 10.88Q56.33 10.79 56.14 10.73L56.14 10.73L56.14 10.73Q55.96 10.66 55.75 10.63L55.75 10.63L55.75 10.63Q55.54 10.60 55.34 10.55L55.34 10.55L55.34 10.55Q55.15 10.51 54.83 10.44L54.83 10.44L54.83 10.44Q54.51 10.36 54.20 10.20L54.20 10.20L54.20 10.20Q53.89 10.04 53.67 9.76L53.67 9.76L53.67 9.76Q53.44 9.49 53.44 9.04L53.44 9.04L53.44 9.04Q53.44 8.52 53.71 8.13L53.71 8.13L53.71 8.13Q53.98 7.74 54.37 7.47L54.37 7.47L54.37 7.47Q54.76 7.21 55.19 7.07L55.19 7.07L55.19 7.07Q55.63 6.93 55.97 6.93L55.97 6.93L55.97 6.93Q56.15 6.93 56.36 6.98L56.36 6.98L56.36 6.98Q56.56 7.03 56.74 7.14L56.74 7.14L56.74 7.14Q56.92 7.26 57.03 7.45L57.03 7.45L57.03 7.45Q57.15 7.64 57.15 7.94L57.15 7.94L57.15 7.94Q57.15 8.24 57.10 8.43L57.10 8.43L57.10 8.43Q57.05 8.61 56.96 8.72L56.96 8.72L56.96 8.72Q56.88 8.82 56.75 8.85L56.75 8.85L56.75 8.85Q56.63 8.87 56.46 8.87L56.46 8.87L56.46 8.87Q56.36 8.87 56.26 8.85L56.26 8.85L56.26 8.85Q56.18 8.82 56.08 8.79L56.08 8.79L56.08 8.79Q55.99 8.76 55.90 8.70L55.90 8.70L55.90 8.70Q56.04 8.53 56.12 8.38L56.12 8.38L56.12 8.38Q56.19 8.23 56.19 8.01L56.19 8.01L56.19 8.01Q56.19 7.82 56.09 7.67L56.09 7.67L56.09 7.67Q55.99 7.52 55.75 7.52L55.75 7.52L55.75 7.52Q55.51 7.52 55.28 7.62L55.28 7.62L55.28 7.62Q55.06 7.71 54.89 7.88L54.89 7.88L54.89 7.88Q54.71 8.04 54.61 8.25L54.61 8.25L54.61 8.25Q54.51 8.46 54.51 8.71L54.51 8.71L54.51 8.71Q54.51 9.08 54.79 9.41L54.79 9.41L54.79 9.41Q55.07 9.73 55.67 9.97ZM62.77 10.09L62.77 10.09L62.77 10.09Q62.54 10.28 62.51 10.77L62.51 10.77L62.51 10.77Q62.49 11.25 62.68 11.75L62.68 11.75L62.68 11.75Q62.86 12.25 63.25 12.63L63.25 12.63L63.25 12.63Q63.63 13.02 64.20 13.02L64.20 13.02L64.20 13.02Q64.57 13.02 64.84 12.84L64.84 12.84L64.84 12.84Q65.11 12.66 65.28 12.39L65.28 12.39L65.28 12.39Q65.45 12.13 65.53 11.80L65.53 11.80L65.53 11.80Q65.61 11.47 65.61 11.16L65.61 11.16L65.61 11.16Q65.61 10.71 65.44 10.40L65.44 10.40L65.44 10.40Q65.27 10.10 64.99 9.88L64.99 9.88L64.99 9.88Q64.71 9.65 64.35 9.50L64.35 9.50L64.35 9.50Q63.98 9.34 63.62 9.17L63.62 9.17L63.62 9.17Q63.27 9.04 62.79 8.83L62.79 8.83L62.79 8.83Q62.32 8.61 61.88 8.26L61.88 8.26L61.88 8.26Q61.44 7.92 61.13 7.40L61.13 7.40L61.13 7.40Q60.83 6.89 60.83 6.14L60.83 6.14L60.83 6.14Q60.83 5.65 61.09 5.14L61.09 5.14L61.09 5.14Q61.35 4.63 61.82 4.22L61.82 4.22L61.82 4.22Q62.30 3.80 62.98 3.54L62.98 3.54L62.98 3.54Q63.66 3.28 64.50 3.28L64.50 3.28L64.50 3.28Q65.34 3.28 65.86 3.43L65.86 3.43L65.86 3.43Q66.38 3.58 66.66 3.82L66.66 3.82L66.66 3.82Q66.95 4.06 67.05 4.34L67.05 4.34L67.05 4.34Q67.16 4.62 67.16 4.87L67.16 4.87L67.16 4.87Q67.16 5.11 67.01 5.37L67.01 5.37L67.01 5.37Q66.86 5.62 66.65 5.83L66.65 5.83L66.65 5.83Q66.45 6.04 66.23 6.20L66.23 6.20L66.23 6.20Q66.01 6.36 65.87 6.41L65.87 6.41L65.87 6.41Q65.94 6.23 66.01 5.92L66.01 5.92L66.01 5.92Q66.08 5.61 65.97 5.29L65.97 5.29L65.97 5.29Q65.87 4.98 65.50 4.74L65.50 4.74L65.50 4.74Q65.12 4.51 64.29 4.51L64.29 4.51L64.29 4.51Q63.81 4.51 63.36 4.66L63.36 4.66L63.36 4.66Q62.90 4.81 62.56 5.05L62.56 5.05L62.56 5.05Q62.21 5.29 62.00 5.59L62.00 5.59L62.00 5.59Q61.80 5.89 61.80 6.21L61.80 6.21L61.80 6.21Q61.80 6.51 62.01 6.76L62.01 6.76L62.01 6.76Q62.22 7.01 62.58 7.24L62.58 7.24L62.58 7.24Q62.95 7.46 63.42 7.68L63.42 7.68L63.42 7.68Q63.89 7.90 64.41 8.12L64.41 8.12L64.41 8.12Q64.91 8.34 65.41 8.59L65.41 8.59L65.41 8.59Q65.90 8.85 66.29 9.17L66.29 9.17L66.29 9.17Q66.68 9.50 66.91 9.91L66.91 9.91L66.91 9.91Q67.14 10.32 67.14 10.86L67.14 10.86L67.14 10.86Q67.14 11.43 66.93 11.96L66.93 11.96L66.93 11.96Q66.72 12.48 66.33 12.88L66.33 12.88L66.33 12.88Q65.94 13.28 65.38 13.51L65.38 13.51L65.38 13.51Q64.82 13.75 64.11 13.75L64.11 13.75L64.11 13.75Q63.48 13.75 62.92 13.55L62.92 13.55L62.92 13.55Q62.36 13.34 61.94 13.02L61.94 13.02L61.94 13.02Q61.52 12.69 61.28 12.29L61.28 12.29L61.28 12.29Q61.03 11.89 61.03 11.51L61.03 11.51L61.03 11.51Q61.03 11.10 61.22 10.81L61.22 10.81L61.22 10.81Q61.40 10.53 61.67 10.36L61.67 10.36L61.67 10.36Q61.95 10.19 62.24 10.12L62.24 10.12L62.24 10.12Q62.54 10.05 62.77 10.09ZM69.17 10.42L69.17 10.42L69.17 10.42Q69.33 9.93 69.45 9.58L69.45 9.58L69.45 9.58Q69.56 9.24 69.64 9.04L69.64 9.04L69.64 9.04Q69.74 8.79 69.81 8.64L69.81 8.64L69.81 8.64Q69.89 8.42 69.99 8.20L69.99 8.20L69.99 8.20Q70.10 7.98 70.21 7.80L70.21 7.80L70.21 7.80Q70.31 7.62 70.41 7.49L70.41 7.49L70.41 7.49Q70.51 7.37 70.57 7.33L70.57 7.33L70.57 7.33Q70.63 7.30 70.83 7.33L70.83 7.33L70.83 7.33Q71.03 7.36 71.26 7.46L71.26 7.46L71.26 7.46Q71.50 7.56 71.72 7.74L71.72 7.74L71.72 7.74Q71.93 7.92 72.01 8.18L72.01 8.18L72.01 8.18Q72.09 8.49 72.06 9.00L72.06 9.00L72.06 9.00Q72.04 9.50 71.99 10.04L71.99 10.04L71.99 10.04Q71.94 10.57 71.92 11.05L71.92 11.05L71.92 11.05Q71.90 11.53 71.98 11.77L71.98 11.77L71.98 11.77Q72.04 11.91 72.09 12.04L72.09 12.04L72.09 12.04Q72.15 12.15 72.22 12.27L72.22 12.27L72.22 12.27Q72.30 12.39 72.39 12.47L72.39 12.47L72.39 12.47Q72.00 12.62 71.76 12.69L71.76 12.69L71.76 12.69Q71.52 12.77 71.39 12.80L71.39 12.80L71.39 12.80Q71.24 12.84 71.19 12.81L71.19 12.81L71.19 12.81Q71.08 12.77 70.98 12.61L70.98 12.61L70.98 12.61Q70.89 12.44 70.82 12.09L70.82 12.09L70.82 12.09Q70.79 11.98 70.81 11.70L70.81 11.70L70.81 11.70Q70.82 11.43 70.85 11.09L70.85 11.09L70.85 11.09Q70.88 10.75 70.90 10.37L70.90 10.37L70.90 10.37Q70.93 9.99 70.96 9.67L70.96 9.67L70.96 9.67Q70.98 9.34 70.99 9.09L70.99 9.09L70.99 9.09Q71.00 8.85 70.98 8.76L70.98 8.76L70.98 8.76Q70.92 8.53 70.79 8.43L70.79 8.43L70.79 8.43Q70.67 8.33 70.60 8.41L70.60 8.41L70.60 8.41Q70.44 8.61 70.24 9.11L70.24 9.11L70.24 9.11Q70.04 9.61 69.86 10.19L69.86 10.19L69.86 10.19Q69.69 10.77 69.56 11.35L69.56 11.35L69.56 11.35Q69.43 11.92 69.40 12.29L69.40 12.29L69.40 12.29Q69.40 12.37 69.27 12.46L69.27 12.46L69.27 12.46Q69.14 12.55 68.98 12.62L68.98 12.62L68.98 12.62Q68.82 12.69 68.67 12.71L68.67 12.71L68.67 12.71Q68.52 12.73 68.47 12.66L68.47 12.66L68.47 12.66Q68.43 12.62 68.30 12.47L68.30 12.47L68.30 12.47Q68.17 12.32 68.15 11.96L68.15 11.96L68.15 11.96Q68.13 11.62 68.15 11.03L68.15 11.03L68.15 11.03Q68.18 10.43 68.17 9.78L68.17 9.78L68.17 8.76L68.17 8.76Q68.17 8.15 68.16 7.06L68.16 7.06L68.16 7.06Q68.15 5.97 68.14 4.18L68.14 4.18L68.14 4.18Q68.29 4.10 68.41 4.04L68.41 4.04L68.41 4.04Q68.54 3.98 68.65 3.94L68.65 3.94L68.65 3.94Q68.77 3.88 68.88 3.86L68.88 3.86L68.88 3.86Q69.47 3.71 69.49 3.86L69.49 3.86L69.49 3.86Q69.51 3.99 69.47 4.73L69.47 4.73L69.47 4.73Q69.45 5.04 69.43 5.52L69.43 5.52L69.43 5.52Q69.40 6.00 69.36 6.69L69.36 6.69L69.36 6.69Q69.33 7.37 69.28 8.29L69.28 8.29L69.28 8.29Q69.23 9.21 69.17 10.42ZM76.82 10.21L76.82 10.21L76.82 10.21Q76.79 10.75 76.64 11.20L76.64 11.20L76.64 11.20Q76.48 11.65 76.21 11.98L76.21 11.98L76.21 11.98Q75.93 12.32 75.56 12.51L75.56 12.51L75.56 12.51Q75.18 12.70 74.73 12.71L74.73 12.71L74.73 12.71Q74.33 12.73 73.99 12.52L73.99 12.52L73.99 12.52Q73.64 12.32 73.38 11.95L73.38 11.95L73.38 11.95Q73.12 11.58 72.99 11.07L72.99 11.07L72.99 11.07Q72.86 10.55 72.91 9.95L72.91 9.95L72.91 9.95Q72.95 9.26 73.17 8.76L73.17 8.76L73.17 8.76Q73.39 8.26 73.64 7.93L73.64 7.93L73.64 7.93Q73.88 7.60 74.09 7.44L74.09 7.44L74.09 7.44Q74.31 7.29 74.36 7.26L74.36 7.26L74.36 7.26Q74.46 7.22 74.54 7.24L74.54 7.24L74.54 7.24Q74.62 7.26 74.72 7.29L74.72 7.29L74.72 7.29Q74.74 7.30 74.77 7.36L74.77 7.36L74.77 7.36Q74.83 7.45 74.84 7.71L74.84 7.71L74.84 7.71Q74.91 7.56 75.02 7.46L75.02 7.46L75.02 7.46Q75.13 7.37 75.24 7.33L75.24 7.33L75.24 7.33Q75.37 7.27 75.51 7.26L75.51 7.26L75.51 7.26Q75.61 7.25 75.84 7.41L75.84 7.41L75.84 7.41Q76.08 7.57 76.31 7.93L76.31 7.93L76.31 7.93Q76.54 8.29 76.70 8.85L76.70 8.85L76.70 8.85Q76.86 9.42 76.82 10.21ZM75.89 10.05L75.89 10.05L75.89 10.05Q75.91 9.72 75.87 9.39L75.87 9.39L75.87 9.39Q75.84 9.05 75.76 8.77L75.76 8.77L75.76 8.77Q75.69 8.49 75.58 8.32L75.58 8.32L75.58 8.32Q75.47 8.15 75.36 8.15L75.36 8.15L75.36 8.15Q75.24 8.18 75.09 8.27L75.09 8.27L75.09 8.27Q74.96 8.35 74.81 8.53L74.81 8.53L74.81 8.53Q74.66 8.71 74.53 9.04L74.53 9.04L74.53 9.04Q74.51 9.00 74.50 8.89L74.50 8.89L74.50 8.89Q74.48 8.79 74.48 8.63L74.48 8.63L74.48 8.63Q74.47 8.48 74.50 8.20L74.50 8.20L74.50 8.20Q74.31 8.44 74.20 8.75L74.20 8.75L74.20 8.75Q74.10 9.06 74.05 9.35L74.05 9.35L74.05 9.35Q73.99 9.69 73.96 10.04L73.96 10.04L73.96 10.04Q73.95 10.40 74.00 10.76L74.00 10.76L74.00 10.76Q74.05 11.12 74.16 11.39L74.16 11.39L74.16 11.39Q74.28 11.66 74.44 11.83L74.44 11.83L74.44 11.83Q74.61 11.99 74.84 11.98L74.84 11.98L74.84 11.98Q75.07 11.96 75.25 11.79L75.25 11.79L75.25 11.79Q75.43 11.61 75.56 11.33L75.56 11.33L75.56 11.33Q75.70 11.06 75.78 10.72L75.78 10.72L75.78 10.72Q75.87 10.38 75.89 10.05ZM80.23 7.15L80.23 7.15L80.23 7.15Q80.61 7.15 80.94 7.37L80.94 7.37L80.94 7.37Q81.27 7.59 81.50 7.94L81.50 7.94L81.50 7.94Q81.73 8.30 81.87 8.76L81.87 8.76L81.87 8.76Q82.00 9.21 82.00 9.71L82.00 9.71L82.00 9.71Q82.00 10.20 81.89 10.75L81.89 10.75L81.89 10.75Q81.79 11.29 81.55 11.76L81.55 11.76L81.55 11.76Q81.32 12.22 80.95 12.53L80.95 12.53L80.95 12.53Q80.58 12.84 80.05 12.84L80.05 12.84L80.05 12.84Q79.63 12.84 79.25 12.53L79.25 12.53L79.25 12.53Q78.87 12.22 78.67 11.76L78.67 11.76L78.67 11.76Q78.64 12.24 78.54 12.74L78.54 12.74L78.54 12.74Q78.45 13.23 78.45 13.93L78.45 13.93L78.45 13.93Q78.45 14.14 78.46 14.40L78.46 14.40L78.46 14.40Q78.48 14.66 78.50 14.92L78.50 14.92L78.50 14.92Q78.53 15.18 78.59 15.39L78.59 15.39L78.59 15.39Q78.64 15.61 78.71 15.74L78.71 15.74L78.71 15.74Q78.48 15.87 78.29 15.94L78.29 15.94L78.29 15.94Q78.11 16.01 77.97 16.04L77.97 16.04L77.97 16.04Q77.82 16.08 77.68 16.08L77.68 16.08L77.68 16.08Q77.51 16.08 77.45 15.93L77.45 15.93L77.45 15.93Q77.40 15.78 77.40 15.39L77.40 15.39L77.40 15.39Q77.40 15.15 77.42 14.69L77.42 14.69L77.42 14.69Q77.44 14.23 77.47 13.64L77.47 13.64L77.47 13.64Q77.51 13.06 77.54 12.41L77.54 12.41L77.54 12.41Q77.57 11.76 77.61 11.13L77.61 11.13L77.61 11.13Q77.64 10.50 77.66 9.96L77.66 9.96L77.66 9.96Q77.68 9.42 77.68 9.05L77.68 9.05L77.68 9.05Q77.68 8.60 77.67 8.35L77.67 8.35L77.67 8.35Q77.66 8.09 77.64 7.96L77.64 7.96L77.64 7.96Q77.62 7.83 77.59 7.78L77.59 7.78L77.59 7.78Q77.56 7.72 77.52 7.66L77.52 7.66L77.52 7.66Q77.64 7.56 77.81 7.49L77.81 7.49L77.81 7.49Q77.98 7.41 78.16 7.38L78.16 7.38L78.16 7.38Q78.33 7.34 78.47 7.36L78.47 7.36L78.47 7.36Q78.61 7.37 78.70 7.42L78.70 7.42L78.70 7.42Q78.76 7.49 78.80 7.63L78.80 7.63L78.80 7.63Q78.83 7.77 78.86 8.04L78.86 8.04L78.86 8.04Q79.12 7.68 79.45 7.42L79.45 7.42L79.45 7.42Q79.79 7.15 80.23 7.15ZM79.69 12.03L79.69 12.03L79.69 12.03Q79.94 12.03 80.17 11.80L80.17 11.80L80.17 11.80Q80.39 11.57 80.56 11.20L80.56 11.20L80.56 11.20Q80.73 10.84 80.83 10.40L80.83 10.40L80.83 10.40Q80.94 9.95 80.94 9.52L80.94 9.52L80.94 9.52Q80.94 9.04 80.85 8.73L80.85 8.73L80.85 8.73Q80.76 8.42 80.63 8.24L80.63 8.24L80.63 8.24Q80.50 8.05 80.36 7.98L80.36 7.98L80.36 7.98Q80.21 7.90 80.10 7.90L80.10 7.90L80.10 7.90Q79.84 7.90 79.61 8.11L79.61 8.11L79.61 8.11Q79.38 8.33 79.20 8.66L79.20 8.66L79.20 8.66Q79.02 9.00 78.92 9.41L78.92 9.41L78.92 9.41Q78.82 9.82 78.82 10.23L78.82 10.23L78.82 10.23Q78.82 10.61 78.89 10.94L78.89 10.94L78.89 10.94Q78.97 11.27 79.09 11.51L79.09 11.51L79.09 11.51Q79.21 11.76 79.37 11.89L79.37 11.89L79.37 11.89Q79.53 12.03 79.69 12.03Z"></path></g><!----><g data-v-423bf9ae="" id="478279bb-dd36-4f97-896c-25d947eb7013" transform="matrix(3.749980926610684,0,0,3.749980926610684,1490.8303218570093,-1126.3692684465107)" stroke="none" fill="#50C1AE"><path d="M-392.5 304.5c0-1.654 1.346-3 3-3s3 1.346 3 3v2h1v-2a4 4 0 0 0-8 0v2h1v-2zM-381.5 313.5v-6a1 1 0 0 0-1-1h-3v1.5a.5.5 0 0 1-1 0v-1.5h-6v1.5a.5.5 0 0 1-1 0v-1.5h-3c-.552 0-1 .447-1 1v14a1 1 0 0 0 1 1h5.195l.9-9h8.905z"></path><path d="M-377.45 314.997a.566.566 0 0 0-.55-.497h-11a.567.567 0 0 0-.55.497l-.9 9.006a.444.444 0 0 0 .45.497h13a.444.444 0 0 0 .45-.497l-.9-9.006zm-6.05 5.503a4 4 0 0 1-4-4 .5.5 0 0 1 1 0c0 1.654 1.346 3 3 3s3-1.346 3-3a.5.5 0 0 1 1 0 4 4 0 0 1-4 4z"></path></g><!----></svg>