<svg data-v-423bf9ae="" xmlns="http://www.w3.org/2000/svg" viewBox="0 0 547 90" class="iconLeftSlogan"><!----><!----><!----><g data-v-423bf9ae="" id="62b462d1-5f2c-47bd-a7a5-3b5c5bbc33e9" fill="#1C300E" transform="matrix(4.743083146983607,0,0,4.743083146983607,97.58701077013262,-13.897233222041187)"><path d="M3.93 3.52L3.93 3.52L3.93 3.52Q3.39 3.50 2.96 3.62L2.96 3.62L2.96 3.62Q2.52 3.73 1.84 4.23L1.84 4.23L1.84 4.23Q1.15 4.74 0.65 5.75L0.65 5.75L0.65 5.75Q0.16 6.75 1.37 7.98L1.37 7.98L1.37 7.98Q-0.06 9.20 0.27 10.71L0.27 10.71L0.27 10.71Q0.68 12.27 3.22 12.71L3.22 12.71L3.22 12.71Q5.90 11.31 6.28 9.92L6.28 9.92L6.28 9.92Q6.65 8.52 5.38 7.73L5.38 7.73L4.12 9.34L4.12 9.34Q5.13 10.14 4.95 10.75L4.95 10.75L4.95 10.75Q4.76 11.35 3.83 11.28L3.83 11.28L3.83 11.28Q2.91 11.21 2.04 10.35L2.04 10.35L2.04 10.35Q1.18 9.49 1.76 8.20L1.76 8.20L1.76 8.20Q2.15 8.36 2.69 8.42L2.69 8.42L4.03 6.99L3.91 6.84L3.91 6.84Q2.35 6.84 1.95 6.44L1.95 6.44L1.95 6.44Q1.55 6.04 1.62 5.40L1.62 5.40L1.62 5.40Q1.68 4.76 2.33 4.63L2.33 4.63L2.33 4.63Q2.99 4.50 3.59 4.79L3.59 4.79L3.59 4.79Q4.18 5.07 4.09 5.59L4.09 5.59L4.25 5.69L5.40 4.44L5.40 4.44Q5.30 4.16 4.88 3.85L4.88 3.85L4.88 3.85Q4.47 3.53 3.93 3.52ZM9.42 7.64L9.42 7.64L9.55 7.79L9.55 7.79Q10.34 7.18 11.00 8.09L11.00 8.09L11.00 8.09Q11.66 9.00 11.62 9.94L11.62 9.94L11.62 9.94Q11.59 10.88 10.99 11.44L10.99 11.44L10.99 11.44Q10.40 11.50 8.13 6.84L8.13 6.84L8.13 6.84Q7.97 6.43 7.58 6.68L7.58 6.68L6.27 7.96L6.32 8.08L6.32 8.08Q6.71 7.77 7.11 8.43L7.11 8.43L9.15 12.24L9.15 12.24Q9.74 12.98 10.33 12.54L10.33 12.54L10.33 12.54Q10.92 12.09 11.43 11.52L11.43 11.52L11.43 11.52Q11.93 10.94 12.60 9.86L12.60 9.86L12.60 9.86Q13.26 8.78 12.71 7.68L12.71 7.68L12.71 7.68Q12.15 6.59 11.34 6.31L11.34 6.31L11.34 6.31Q10.52 6.03 9.42 7.64ZM16.47 6.60L16.47 6.60L16.47 6.60Q15.40 6.43 14.47 7.26L14.47 7.26L14.47 7.26Q13.54 8.09 13.28 9.20L13.28 9.20L13.28 9.20Q13.02 10.31 13.44 11.26L13.44 11.26L13.44 11.26Q13.86 12.22 15.00 12.62L15.00 12.62L15.00 12.62Q15.93 12.93 16.94 12.18L16.94 12.18L16.94 12.18Q17.94 11.43 18.26 10.77L18.26 10.77L18.05 10.61L18.05 10.61Q16.67 11.56 15.86 11.24L15.86 11.24L15.86 11.24Q15.04 10.92 14.90 10.51L14.90 10.51L16.38 9.54L16.38 9.54Q17.82 8.65 17.68 7.70L17.68 7.70L17.68 7.70Q17.53 6.76 16.47 6.60ZM14.38 8.64L14.38 8.64L14.38 8.64Q14.36 8.14 14.73 7.78L14.73 7.78L14.73 7.78Q15.11 7.41 15.72 7.78L15.72 7.78L15.72 7.78Q16.32 8.15 16.23 8.76L16.23 8.76L16.23 8.76Q16.13 9.37 14.69 10.14L14.69 10.14L14.69 10.14Q14.53 9.80 14.46 9.47L14.46 9.47L14.46 9.47Q14.40 9.14 14.38 8.64ZM20.24 6.42L18.57 7.64L18.72 7.87L18.72 7.87Q19.23 7.56 19.17 8.50L19.17 8.50L19.17 8.50Q19.11 11.46 19.20 11.91L19.20 11.91L19.20 11.91Q19.28 12.37 19.86 12.71L19.86 12.71L21.31 11.46L21.31 11.29L21.31 11.29Q20.85 11.40 20.73 10.78L20.73 10.78L20.73 10.78Q20.60 10.17 20.68 8.27L20.68 8.27L20.68 8.27Q21.55 7.48 22.22 8.43L22.22 8.43L23.45 7.29L23.45 7.29Q22.67 6.25 22.05 6.49L22.05 6.49L22.05 6.49Q21.42 6.72 20.71 7.62L20.71 7.62L20.71 7.62Q20.77 6.77 20.24 6.42L20.24 6.42ZM28.12 6.46L26.70 7.51L26.70 7.51Q27.02 7.48 26.97 8.18L26.97 8.18L26.97 11.11L26.63 11.49L26.63 11.49Q26.23 11.70 25.82 11.62L25.82 11.62L25.82 11.62Q25.41 11.55 25.29 10.94L25.29 10.94L25.29 7.57L25.29 7.57Q25.17 6.68 24.69 6.48L24.69 6.48L23.44 7.40L23.44 7.40Q23.85 7.68 23.82 8.52L23.82 8.52L23.82 11.02L23.82 11.02Q23.89 11.84 24.44 12.32L24.44 12.32L24.44 12.32Q24.99 12.80 25.79 12.73L25.79 12.73L25.79 12.73Q26.59 12.66 27.04 11.90L27.04 11.90L27.04 11.90Q27.14 13.30 27.01 13.91L27.01 13.91L27.01 13.91Q26.88 14.51 25.91 14.21L25.91 14.21L25.91 14.21Q24.94 13.90 23.94 12.96L23.94 12.96L22.86 14.21L22.86 14.21Q24.75 15.61 25.95 15.20L25.95 15.20L25.95 15.20Q27.15 14.80 27.81 14.31L27.81 14.31L27.81 14.31Q28.48 13.82 28.59 12.50L28.59 12.50L28.58 7.98L28.58 7.98Q28.65 6.99 28.12 6.46L28.12 6.46ZM30.58 2.93L29.16 3.90L29.16 3.90Q29.50 4.09 29.44 6.92L29.44 6.92L29.44 6.92Q29.39 9.76 29.48 10.51L29.48 10.51L29.48 10.51Q29.57 11.25 30.69 12.14L30.69 12.14L30.69 12.14Q31.81 13.02 32.62 12.50L32.62 12.50L32.62 12.50Q33.44 11.98 34.10 11.29L34.10 11.29L34.10 11.29Q34.77 10.60 34.94 9.51L34.94 9.51L34.94 9.51Q35.10 8.43 34.71 7.57L34.71 7.57L34.71 7.57Q34.32 6.71 33.17 6.51L33.17 6.51L33.17 6.51Q32.03 6.31 31.03 7.53L31.03 7.53L31.03 7.53Q31.10 3.88 30.91 3.42L30.91 3.42L30.91 3.42Q30.71 2.97 30.58 2.93L30.58 2.93ZM31.80 7.73L31.80 7.73L31.80 7.73Q32.33 7.65 32.82 8.03L32.82 8.03L32.82 8.03Q33.31 8.40 33.40 9.37L33.40 9.37L33.40 9.37Q33.48 10.34 33.00 11.52L33.00 11.52L33.00 11.52Q31.90 11.94 31.39 11.26L31.39 11.26L31.39 11.26Q30.87 10.58 31.07 8.12L31.07 8.12L31.07 8.12Q31.27 7.81 31.80 7.73ZM39.94 12.76L41.61 11.54L41.45 11.31L41.45 11.31Q41.00 11.40 41.00 10.68L41.00 10.68L41.00 10.68Q41.07 7.72 40.98 7.27L40.98 7.27L40.98 7.27Q40.89 6.82 40.32 6.47L40.32 6.47L38.87 7.72L38.94 7.85L38.94 7.85Q39.34 7.65 39.46 8.33L39.46 8.33L39.46 8.33Q39.57 9.02 39.50 10.91L39.50 10.91L39.50 10.91Q38.62 11.70 38.02 11.47L38.02 11.47L38.02 11.47Q37.41 11.25 37.42 9.81L37.42 9.81L37.42 9.81Q37.45 7.76 37.41 7.27L37.41 7.27L37.41 7.27Q37.36 6.78 36.82 6.42L36.82 6.42L35.40 7.69L35.53 7.85L35.53 7.85Q35.79 7.66 35.88 8.36L35.88 8.36L35.88 8.36Q35.96 9.07 35.91 10.51L35.91 10.51L35.91 10.51Q35.85 11.39 36.07 11.88L36.07 11.88L36.07 11.88Q36.29 12.38 36.91 12.63L36.91 12.63L36.91 12.63Q37.53 12.87 38.06 12.61L38.06 12.61L38.06 12.61Q38.60 12.35 38.94 12.07L38.94 12.07L38.94 12.07Q39.29 11.78 39.47 11.57L39.47 11.57L39.47 11.57Q39.41 12.41 39.94 12.76L39.94 12.76ZM46.88 2.93L46.88 2.93L45.55 3.85L45.55 3.85Q45.87 4.42 45.83 6.77L45.83 6.77L45.83 6.77Q45.33 6.51 44.90 6.55L44.90 6.55L44.90 6.55Q44.47 6.58 43.93 6.94L43.93 6.94L43.93 6.94Q43.40 7.30 42.78 7.91L42.78 7.91L42.78 7.91Q42.16 8.51 41.95 9.61L41.95 9.61L41.95 9.61Q41.74 10.71 42.37 11.71L42.37 11.71L42.37 11.71Q43.00 12.71 43.74 12.75L43.74 12.75L43.74 12.75Q44.48 12.78 45.94 11.28L45.94 11.28L45.94 11.28Q45.94 12.25 46.79 12.77L46.79 12.77L47.97 11.76L47.97 11.76Q47.26 11.37 47.37 7.21L47.37 7.21L47.37 7.21Q47.49 3.04 46.88 2.93ZM43.47 7.93L43.47 7.93Q44.54 7.84 44.95 8.83L44.95 8.83L45.86 8.05L45.86 8.45L45.88 8.62L45.88 10.73L45.80 10.76L45.80 10.76Q45.61 11.18 44.90 11.23L44.90 11.23L44.90 11.23Q44.19 11.29 43.61 10.33L43.61 10.33L43.61 10.33Q43.04 9.38 43.47 7.93L43.47 7.93ZM53.31 2.93L53.31 2.93L51.97 3.85L51.97 3.85Q52.29 4.42 52.25 6.77L52.25 6.77L52.25 6.77Q51.75 6.51 51.32 6.55L51.32 6.55L51.32 6.55Q50.89 6.58 50.36 6.94L50.36 6.94L50.36 6.94Q49.83 7.30 49.21 7.91L49.21 7.91L49.21 7.91Q48.59 8.51 48.38 9.61L48.38 9.61L48.38 9.61Q48.17 10.71 48.80 11.71L48.80 11.71L48.80 11.71Q49.43 12.71 50.17 12.75L50.17 12.75L50.17 12.75Q50.91 12.78 52.36 11.28L52.36 11.28L52.36 11.28Q52.36 12.25 53.21 12.77L53.21 12.77L54.40 11.76L54.40 11.76Q53.68 11.37 53.80 7.21L53.80 7.21L53.80 7.21Q53.92 3.04 53.31 2.93ZM49.90 7.93L49.90 7.93Q50.96 7.84 51.38 8.83L51.38 8.83L52.28 8.05L52.28 8.45L52.31 8.62L52.31 10.73L52.23 10.76L52.23 10.76Q52.04 11.18 51.32 11.23L51.32 11.23L51.32 11.23Q50.61 11.29 50.04 10.33L50.04 10.33L50.04 10.33Q49.46 9.38 49.90 7.93L49.90 7.93ZM59.50 6.46L58.08 7.51L58.08 7.51Q58.40 7.48 58.36 8.18L58.36 8.18L58.35 11.11L58.02 11.49L58.02 11.49Q57.61 11.70 57.20 11.62L57.20 11.62L57.20 11.62Q56.79 11.55 56.67 10.94L56.67 10.94L56.68 7.57L56.68 7.57Q56.55 6.68 56.08 6.48L56.08 6.48L54.82 7.40L54.82 7.40Q55.23 7.68 55.21 8.52L55.21 8.52L55.20 11.02L55.20 11.02Q55.28 11.84 55.83 12.32L55.83 12.32L55.83 12.32Q56.38 12.80 57.18 12.73L57.18 12.73L57.18 12.73Q57.98 12.66 58.42 11.90L58.42 11.90L58.42 11.90Q58.52 13.30 58.39 13.91L58.39 13.91L58.39 13.91Q58.26 14.51 57.29 14.21L57.29 14.21L57.29 14.21Q56.32 13.90 55.32 12.96L55.32 12.96L54.24 14.21L54.24 14.21Q56.13 15.61 57.33 15.20L57.33 15.20L57.33 15.20Q58.53 14.80 59.20 14.31L59.20 14.31L59.20 14.31Q59.86 13.82 59.97 12.50L59.97 12.50L59.96 7.98L59.96 7.98Q60.03 6.99 59.50 6.46L59.50 6.46ZM61.69 3.21L60.38 4.22L60.38 4.22Q60.31 4.35 60.40 4.44L60.40 4.44L60.40 4.44Q61.57 5.42 60.84 6.22L60.84 6.22L60.84 6.22Q60.78 6.43 61.00 6.47L61.00 6.47L61.00 6.47Q63.85 5.09 61.82 3.21L61.82 3.21L61.69 3.21ZM65.78 6.52L65.78 6.52L65.78 6.52Q65.06 6.63 64.61 6.92L64.61 6.92L64.61 6.92Q64.16 7.21 63.84 7.52L63.84 7.52L63.84 7.52Q63.53 7.84 63.36 8.41L63.36 8.41L63.36 8.41Q63.20 8.98 63.65 9.39L63.65 9.39L63.65 9.39Q64.11 9.80 65.16 10.02L65.16 10.02L65.16 10.02Q66.21 10.24 66.56 10.55L66.56 10.55L66.56 10.55Q66.90 10.87 66.93 11.14L66.93 11.14L66.93 11.14Q66.96 11.42 66.72 11.52L66.72 11.52L66.72 11.52Q66.47 11.61 65.96 11.54L65.96 11.54L65.96 11.54Q65.45 11.46 64.99 11.22L64.99 11.22L64.99 11.22Q64.52 10.99 64.19 10.65L64.19 10.65L64.19 10.65Q63.85 10.32 64.13 10.02L64.13 10.02L63.98 9.93L62.92 10.84L62.92 10.84Q62.79 11.20 63.19 11.67L63.19 11.67L63.19 11.67Q63.59 12.14 64.21 12.40L64.21 12.40L64.21 12.40Q64.83 12.66 65.47 12.70L65.47 12.70L65.47 12.70Q66.11 12.74 66.75 12.32L66.75 12.32L66.75 12.32Q67.40 11.90 67.70 11.35L67.70 11.35L67.70 11.35Q68.00 10.81 67.94 10.26L67.94 10.26L67.94 10.26Q67.87 9.71 67.52 9.30L67.52 9.30L67.52 9.30Q67.16 8.88 65.98 8.55L65.98 8.55L65.98 8.55Q64.80 8.22 64.61 7.84L64.61 7.84L64.61 7.84Q64.42 7.45 64.90 7.38L64.90 7.38L64.90 7.38Q65.39 7.31 66.05 7.63L66.05 7.63L66.05 7.63Q66.71 7.96 66.49 8.25L66.49 8.25L66.58 8.35L67.59 7.38L67.59 7.38Q67.49 6.92 66.99 6.67L66.99 6.67L66.99 6.67Q66.49 6.41 65.78 6.52ZM73.80 3.61L73.80 3.61L73.80 3.61Q73.22 3.75 72.73 4.18L72.73 4.18L72.73 4.18Q72.24 4.60 71.90 5.07L71.90 5.07L71.90 5.07Q71.56 5.54 71.54 6.25L71.54 6.25L71.54 6.25Q71.52 6.97 72.00 7.51L72.00 7.51L72.00 7.51Q72.47 8.06 73.63 8.61L73.63 8.61L73.63 8.61Q74.80 9.16 75.31 9.92L75.31 9.92L75.31 9.92Q75.82 10.68 75.37 11.10L75.37 11.10L75.37 11.10Q74.92 11.52 74.27 11.39L74.27 11.39L74.27 11.39Q73.61 11.25 73.01 10.89L73.01 10.89L73.01 10.89Q72.42 10.52 72.14 9.88L72.14 9.88L72.14 9.88Q71.87 9.24 72.17 8.81L72.17 8.81L72.00 8.68L70.90 9.95L70.90 9.95Q70.77 10.49 71.20 11.18L71.20 11.18L71.20 11.18Q71.63 11.87 72.41 12.33L72.41 12.33L72.41 12.33Q73.19 12.79 74.12 12.67L74.12 12.67L74.12 12.67Q75.06 12.54 75.89 11.37L75.89 11.37L75.89 11.37Q76.73 10.20 76.71 9.49L76.71 9.49L76.71 9.49Q76.69 8.78 76.20 8.17L76.20 8.17L76.20 8.17Q75.71 7.56 74.29 6.97L74.29 6.97L74.29 6.97Q72.88 6.38 72.71 5.74L72.71 5.74L72.71 5.74Q72.54 5.09 73.12 4.92L73.12 4.92L73.12 4.92Q73.70 4.76 74.32 5.10L74.32 5.10L74.32 5.10Q74.94 5.43 74.76 5.97L74.76 5.97L74.85 6.13L75.93 4.93L75.93 4.93Q75.82 4.23 75.10 3.85L75.10 3.85L75.10 3.85Q74.38 3.47 73.80 3.61ZM78.27 3.05L77.10 3.99L77.10 3.99Q77.27 4.34 77.29 4.93L77.29 4.93L77.29 4.93Q77.27 11.40 77.39 11.88L77.39 11.88L77.39 11.88Q77.51 12.37 77.88 12.81L77.88 12.81L79.32 11.46L79.32 11.29L79.32 11.29Q78.87 11.40 78.74 10.78L78.74 10.78L78.74 10.78Q78.62 10.17 78.70 8.27L78.70 8.27L78.70 8.27Q79.70 7.50 80.31 7.73L80.31 7.73L80.31 7.73Q80.91 7.96 80.90 9.39L80.90 9.39L80.90 9.39Q80.87 11.44 80.92 11.93L80.92 11.93L80.92 11.93Q80.96 12.42 81.50 12.78L81.50 12.78L82.89 11.53L82.89 11.35L82.89 11.35Q82.54 11.46 82.42 10.83L82.42 10.83L82.42 10.83Q82.30 10.20 82.37 8.76L82.37 8.76L82.37 8.76Q82.42 7.88 82.23 7.35L82.23 7.35L82.23 7.35Q82.04 6.82 81.42 6.58L81.42 6.58L81.42 6.58Q80.79 6.33 80.26 6.59L80.26 6.59L80.26 6.59Q79.73 6.85 79.38 7.14L79.38 7.14L79.38 7.14Q79.04 7.42 78.72 7.62L78.72 7.62L78.70 3.91L78.70 3.91Q78.61 3.32 78.27 3.05L78.27 3.05ZM85.63 6.49L85.63 6.49Q84.49 7.24 84.01 7.80L84.01 7.80L84.01 7.80Q83.54 8.35 83.34 8.92L83.34 8.92L83.34 8.92Q83.15 9.48 83.28 10.33L83.28 10.33L83.28 10.33Q83.41 11.18 84.27 11.96L84.27 11.96L84.27 11.96Q85.14 12.75 85.66 12.75L85.66 12.75L85.66 12.75Q86.18 12.76 87.29 11.74L87.29 11.74L87.29 11.74Q87.73 11.35 88.05 10.91L88.05 10.91L88.05 10.91Q88.38 10.47 88.53 9.67L88.53 9.67L88.53 9.67Q88.68 8.87 88.27 7.90L88.27 7.90L88.27 7.90Q87.23 6.30 85.63 6.49L85.63 6.49ZM85.41 7.70L85.41 7.70L85.41 7.70Q86.28 7.83 86.78 8.81L86.78 8.81L86.78 8.81Q87.29 9.79 87.12 10.78L87.12 10.78L87.12 10.78Q86.95 11.76 86.07 11.29L86.07 11.29L86.07 11.29Q85.19 10.81 84.75 10.00L84.75 10.00L84.75 10.00Q84.30 9.19 84.42 8.37L84.42 8.37L84.42 8.37Q84.54 7.56 85.41 7.70ZM90.56 6.58L89.00 7.85L89.07 8.07L89.07 8.07Q89.63 7.59 89.44 10.69L89.44 10.69L88.86 11.17L88.86 11.17Q89.07 11.39 89.46 11.69L89.46 11.69L89.46 11.69Q89.30 14.22 89.65 14.82L89.65 14.82L89.65 14.82Q90.00 15.42 90.60 15.58L90.60 15.58L91.85 14.32L91.72 14.10L91.72 14.10Q90.86 14.38 90.97 12.28L90.97 12.28L90.97 12.28Q91.74 12.50 92.44 12.09L92.44 12.09L92.44 12.09Q93.13 11.69 93.78 10.87L93.78 10.87L93.78 10.87Q94.43 10.05 94.62 9.45L94.62 9.45L94.62 9.45Q94.80 8.85 94.42 7.81L94.42 7.81L94.42 7.81Q94.05 6.77 92.51 6.49L92.51 6.49L91.08 7.72L91.08 7.72Q91.12 7.02 90.56 6.58L90.56 6.58ZM91.66 7.92L91.66 7.92Q92.65 8.03 93.07 9.19L93.07 9.19L93.07 9.19Q93.48 10.34 93.03 11.06L93.03 11.06L93.03 11.06Q92.57 11.77 91.08 10.75L91.08 10.75L91.06 8.14L91.66 7.92Z"></path></g><defs data-v-423bf9ae=""><linearGradient data-v-423bf9ae="" gradientTransform="rotate(25)" id="f2a8f6ec-94ab-483a-ae49-b11763f39065" x1="0%" y1="0%" x2="100%" y2="0%"><stop data-v-423bf9ae="" offset="0%" style="stop-color: rgb(33, 105, 15); stop-opacity: 1;"></stop><stop data-v-423bf9ae="" offset="100%" style="stop-color: rgb(136, 200, 72); stop-opacity: 1;"></stop></linearGradient></defs><g data-v-423bf9ae="" id="c77bcff8-4780-4a48-9188-4d188c66f851" transform="matrix(3.749980926610684,0,0,3.749980926610684,1490.8303218570093,-1126.3692684465107)" stroke="none" fill="url(#f2a8f6ec-94ab-483a-ae49-b11763f39065)"><path d="M-392.5 304.5c0-1.654 1.346-3 3-3s3 1.346 3 3v2h1v-2a4 4 0 0 0-8 0v2h1v-2zM-381.5 313.5v-6a1 1 0 0 0-1-1h-3v1.5a.5.5 0 0 1-1 0v-1.5h-6v1.5a.5.5 0 0 1-1 0v-1.5h-3c-.552 0-1 .447-1 1v14a1 1 0 0 0 1 1h5.195l.9-9h8.905z"></path><path d="M-377.45 314.997a.566.566 0 0 0-.55-.497h-11a.567.567 0 0 0-.55.497l-.9 9.006a.444.444 0 0 0 .45.497h13a.444.444 0 0 0 .45-.497l-.9-9.006zm-6.05 5.503a4 4 0 0 1-4-4 .5.5 0 0 1 1 0c0 1.654 1.346 3 3 3s3-1.346 3-3a.5.5 0 0 1 1 0 4 4 0 0 1-4 4z"></path></g><!----><g data-v-423bf9ae="" id="38e8df04-020d-4022-a77d-ade85c5692d1" fill="#1C300E" transform="matrix(0.551344681498549,0,0,0.551344681498549,98.36465271337926,58.48931425177946)"><path d="M0.77 3.64L0.38 3.64L0.40 3.08L3.50 3.08L3.50 3.08Q5.24 3.08 6.02 3.75L6.02 3.75L6.02 3.75Q6.79 4.42 6.79 5.37L6.79 5.37L6.79 5.37Q6.79 6.08 6.25 6.60L6.25 6.60L6.25 6.60Q5.69 7.14 5.00 7.35L5.00 7.35L5.00 7.35Q6.08 7.57 6.61 8.34L6.61 8.34L6.61 8.34Q7.13 9.08 7.12 10.01L7.12 10.01L7.12 10.01Q7.12 11.01 6.49 11.59L6.49 11.59L6.49 11.59Q5.89 12.13 4.94 12.28L4.94 12.28L4.94 12.28Q4.02 12.41 2.47 12.41L2.47 12.41L0.49 12.41L0.49 11.87L0.91 11.87L0.91 11.87Q1.27 11.87 1.38 11.80L1.38 11.80L1.38 11.80Q1.50 11.73 1.50 11.46L1.50 11.46L1.50 4.14L1.50 4.14Q1.50 3.81 1.35 3.72L1.35 3.72L1.35 3.72Q1.21 3.64 0.77 3.64L0.77 3.64ZM2.60 7.59L2.60 7.59L2.63 11.35L2.63 11.35Q2.63 11.63 2.80 11.71L2.80 11.71L2.80 11.71Q2.97 11.80 3.54 11.80L3.54 11.80L3.54 11.80Q5.80 11.80 5.80 9.91L5.80 9.91L5.80 9.91Q5.80 9.22 5.48 8.73L5.48 8.73L5.48 8.73Q5.16 8.24 4.63 8.02L4.63 8.02L4.63 8.02Q4.05 7.75 3.61 7.68L3.61 7.68L3.61 7.68Q3.13 7.59 2.60 7.59ZM2.63 4.01L2.63 7.19L4.01 7.19L4.01 7.19Q4.66 7.19 5.08 6.66L5.08 6.66L5.08 6.66Q5.48 6.15 5.49 5.54L5.49 5.54L5.49 5.54Q5.49 4.85 4.90 4.27L4.90 4.27L4.90 4.27Q4.33 3.69 3.05 3.69L3.05 3.69L3.05 3.69Q2.63 3.69 2.63 4.01L2.63 4.01ZM15.55 3.64L15.17 3.64L15.17 3.08L18.53 3.08L18.55 3.64L18.01 3.64L18.01 3.64Q17.58 3.64 17.42 3.73L17.42 3.73L17.42 3.73Q17.25 3.83 17.25 4.16L17.25 4.16L17.25 9.33L17.25 9.33Q17.25 9.63 17.29 9.78L17.29 9.78L17.29 9.78Q17.33 10.01 17.49 10.41L17.49 10.41L17.49 10.41Q17.66 10.80 17.96 11.09L17.96 11.09L17.96 11.09Q18.27 11.40 18.83 11.63L18.83 11.63L18.83 11.63Q19.40 11.85 20.18 11.85L20.18 11.85L20.18 11.85Q21.03 11.85 21.58 11.67L21.58 11.67L21.58 11.67Q22.14 11.48 22.45 11.22L22.45 11.22L22.45 11.22Q22.76 10.96 22.90 10.49L22.90 10.49L22.90 10.49Q23.07 9.95 23.08 9.66L23.08 9.66L23.08 9.66Q23.11 9.18 23.11 8.67L23.11 8.67L23.11 4.14L23.11 4.14Q23.11 3.81 22.97 3.72L22.97 3.72L22.97 3.72Q22.82 3.64 22.34 3.64L22.34 3.64L21.85 3.64L21.88 3.08L24.51 3.08L24.51 3.64L24.32 3.64L24.32 3.64Q23.99 3.64 23.88 3.75L23.88 3.75L23.88 3.75Q23.77 3.86 23.77 4.25L23.77 4.25L23.77 9.22L23.77 9.22Q23.77 12.67 20.18 12.67L20.18 12.67L20.18 12.67Q18.01 12.67 17.06 11.76L17.06 11.76L17.06 11.76Q16.13 10.86 16.13 9.41L16.13 9.41L16.13 4.14L16.13 4.14Q16.13 3.81 16.02 3.72L16.02 3.72L16.02 3.72Q15.91 3.64 15.55 3.64L15.55 3.64ZM32.39 3.64L32.39 3.64L32.40 3.08L35.54 3.08L35.54 3.64L35.26 3.64L35.26 3.64Q34.81 3.64 34.70 3.66L34.70 3.66L34.70 3.66Q34.53 3.71 34.53 3.82L34.53 3.82L34.53 3.82Q34.53 3.89 34.78 4.31L34.78 4.31L36.78 7.46L39.23 3.99L39.23 3.99Q39.31 3.83 39.32 3.82L39.32 3.82L39.32 3.82Q39.32 3.64 38.40 3.64L38.40 3.64L38.19 3.64L38.17 3.08L40.71 3.08L40.71 3.64L40.65 3.64L40.65 3.64Q40.30 3.64 40.15 3.72L40.15 3.72L40.15 3.72Q40.00 3.80 39.71 4.22L39.71 4.22L36.98 8.17L36.98 11.22L36.98 11.22Q36.98 11.66 37.09 11.77L37.09 11.77L37.09 11.77Q37.19 11.87 37.80 11.87L37.80 11.87L38.44 11.87L38.42 12.41L34.49 12.41L34.50 11.87L35.06 11.87L35.06 11.87Q35.59 11.87 35.72 11.79L35.72 11.79L35.72 11.79Q35.85 11.70 35.85 11.25L35.85 11.25L35.85 8.06L33.55 4.49L33.55 4.49Q33.13 3.84 33.00 3.73L33.00 3.73L33.00 3.73Q32.89 3.64 32.39 3.64ZM58.41 3.64L58.17 3.64L58.17 3.08L61.27 3.08L61.26 3.64L60.95 3.64L60.95 3.64Q60.12 3.64 60.12 3.94L60.12 3.94L60.12 3.94Q60.12 4.03 60.16 4.09L60.16 4.09L62.58 10.76L64.89 4.85L64.78 4.57L64.78 4.57Q64.76 4.52 64.74 4.44L64.74 4.44L64.74 4.44Q64.72 4.36 64.70 4.31L64.70 4.31L64.70 4.31Q64.67 4.25 64.66 4.22L64.66 4.22L64.66 4.22Q64.63 4.16 64.54 3.96L64.54 3.96L64.54 3.96Q64.46 3.80 64.34 3.71L64.34 3.71L64.34 3.71Q64.26 3.64 64.09 3.64L64.09 3.64L63.40 3.64L63.40 3.08L66.73 3.08L66.73 3.64L65.99 3.64L65.99 3.64Q65.76 3.64 65.70 3.68L65.70 3.68L65.70 3.68Q65.63 3.72 65.63 3.86L65.63 3.86L65.63 3.86Q65.63 4.00 65.88 4.76L65.88 4.76L67.92 10.72L70.42 4.18L70.42 4.18Q70.47 4.01 70.47 3.94L70.47 3.94L70.47 3.94Q70.47 3.75 70.30 3.69L70.30 3.69L70.30 3.69Q70.14 3.64 69.79 3.64L69.79 3.64L69.42 3.64L69.42 3.08L71.82 3.08L71.83 3.64L71.66 3.64L71.66 3.64Q71.31 3.64 71.22 3.77L71.22 3.77L71.22 3.77Q71.09 3.96 70.85 4.60L70.85 4.60L67.76 12.64L67.52 12.64L65.14 5.64L62.42 12.63L62.20 12.63L59.23 4.52L59.23 4.52Q59.01 3.96 58.85 3.79L58.85 3.79L58.85 3.79Q58.69 3.63 58.41 3.64L58.41 3.64ZM79.93 3.64L79.56 3.64L79.56 3.08L83.05 3.08L83.05 3.64L82.69 3.64L82.69 3.64Q82.18 3.64 82.03 3.75L82.03 3.75L82.03 3.75Q81.89 3.84 81.89 4.25L81.89 4.25L81.89 6.91L86.44 6.91L86.44 4.14L86.44 4.14Q86.44 3.77 86.34 3.71L86.34 3.71L86.34 3.71Q86.24 3.64 85.71 3.64L85.71 3.64L85.12 3.64L85.11 3.08L88.66 3.08L88.66 3.64L88.27 3.64L88.27 3.64Q87.79 3.64 87.68 3.74L87.68 3.74L87.68 3.74Q87.58 3.83 87.58 4.22L87.58 4.22L87.58 11.29L87.58 11.29Q87.58 11.67 87.71 11.77L87.71 11.77L87.71 11.77Q87.87 11.87 88.42 11.87L88.42 11.87L88.89 11.87L88.87 12.41L85.39 12.41L85.37 11.87L85.78 11.87L85.78 11.87Q86.25 11.87 86.34 11.77L86.34 11.77L86.34 11.77Q86.44 11.67 86.44 11.25L86.44 11.25L86.44 7.58L81.89 7.58L81.89 11.25L81.89 11.25Q81.89 11.67 82.04 11.77L82.04 11.77L82.04 11.77Q82.20 11.87 82.90 11.87L82.90 11.87L83.30 11.87L83.28 12.41L79.69 12.41L79.68 11.87L80.04 11.87L80.04 11.87Q80.59 11.87 80.66 11.80L80.66 11.80L80.66 11.80Q80.75 11.70 80.75 11.25L80.75 11.25L80.75 4.09L80.75 4.09Q80.75 3.76 80.62 3.71L80.62 3.71L80.62 3.71Q80.45 3.64 79.93 3.64L79.93 3.64ZM96.64 12.41L96.63 11.87L96.80 11.87L96.80 11.87Q97.19 11.87 97.32 11.73L97.32 11.73L97.32 11.73Q97.44 11.57 97.77 10.83L97.77 10.83L98.68 8.82L99.26 7.53L99.26 7.53Q99.52 6.97 99.57 6.86L99.57 6.86L99.57 6.86Q99.63 6.70 99.69 6.60L99.69 6.60L99.69 6.60Q99.74 6.51 99.75 6.45L99.75 6.45L99.85 6.21L101.27 2.74L101.57 2.74L101.57 2.74Q102.42 4.98 104.61 10.25L104.61 10.25L104.61 10.25Q105.06 11.34 105.25 11.64L105.25 11.64L105.25 11.64Q105.39 11.87 105.83 11.87L105.83 11.87L106.04 11.87L106.03 12.41L102.83 12.41L102.85 11.87L103.26 11.87L103.26 11.87Q103.88 11.87 103.88 11.70L103.88 11.70L103.88 11.70Q103.88 11.63 103.74 11.27L103.74 11.27L102.70 8.72L99.46 8.72L98.35 11.18L98.35 11.18Q98.21 11.50 98.21 11.63L98.21 11.63L98.21 11.63Q98.21 11.79 98.31 11.83L98.31 11.83L98.31 11.83Q98.40 11.87 98.79 11.87L98.79 11.87L99.36 11.87L99.36 12.41L96.64 12.41ZM101.14 4.79L99.72 8.10L102.46 8.10L101.14 4.79ZM114.05 5.35L113.55 5.33L113.55 5.33Q113.67 4.17 113.76 3.08L113.76 3.08L121.84 3.08L121.84 3.08Q121.75 4.13 121.73 4.53L121.73 4.53L121.73 4.53Q121.69 5.26 121.67 5.32L121.67 5.32L121.17 5.30L121.17 5.30Q121.25 4.34 121.25 4.16L121.25 4.16L121.25 4.16Q121.25 3.88 121.11 3.79L121.11 3.79L121.11 3.79Q120.93 3.69 120.53 3.69L120.53 3.69L118.92 3.69L118.92 3.69Q118.42 3.69 118.30 3.79L118.30 3.79L118.30 3.79Q118.20 3.87 118.19 4.36L118.19 4.36L118.19 11.22L118.19 11.22Q118.19 11.66 118.34 11.76L118.34 11.76L118.34 11.76Q118.49 11.87 119.01 11.87L119.01 11.87L119.57 11.87L119.58 12.41L115.89 12.40L115.89 11.87L116.11 11.87L116.11 11.87Q116.78 11.87 116.92 11.79L116.92 11.79L116.92 11.79Q117.07 11.70 117.07 11.28L117.07 11.28L117.07 4.48L117.07 4.48Q117.07 3.92 116.97 3.80L116.97 3.80L116.97 3.80Q116.87 3.69 116.44 3.69L116.44 3.69L114.97 3.69L114.97 3.69Q114.79 3.69 114.72 3.71L114.72 3.71L114.72 3.71Q114.65 3.72 114.54 3.72L114.54 3.72L114.54 3.72Q114.52 3.72 114.40 3.79L114.40 3.79L114.40 3.79Q114.32 3.84 114.29 3.86L114.29 3.86L114.29 3.86Q114.26 3.88 114.22 3.99L114.22 3.99L114.22 3.99Q114.19 4.05 114.17 4.14L114.17 4.14L114.17 4.14Q114.14 4.21 114.12 4.36L114.12 4.36L114.12 4.36Q114.09 4.59 114.09 4.61L114.09 4.61L114.09 4.61Q114.09 4.80 114.08 4.95L114.08 4.95L114.08 4.95Q114.08 5.02 114.07 5.15L114.07 5.15L114.07 5.15Q114.06 5.29 114.05 5.35L114.05 5.35ZM129.59 3.64L129.58 3.08L136.79 3.08L136.79 3.08Q136.80 4.14 136.86 5.28L136.86 5.28L136.31 5.30L136.31 5.30Q136.29 4.66 136.24 4.25L136.24 4.25L136.24 4.25Q136.20 3.89 136.14 3.80L136.14 3.80L136.14 3.80Q136.09 3.71 135.97 3.69L135.97 3.69L135.97 3.69Q135.88 3.68 135.29 3.68L135.29 3.68L132.91 3.68L132.91 3.68Q132.36 3.68 132.22 3.77L132.22 3.77L132.22 3.77Q132.10 3.86 132.10 4.33L132.10 4.33L132.10 6.28L132.10 6.28Q132.10 6.69 132.15 6.76L132.15 6.76L132.15 6.76Q132.22 6.84 132.56 6.84L132.56 6.84L134.67 6.84L134.67 6.84Q135.04 6.84 135.12 6.73L135.12 6.73L135.12 6.73Q135.20 6.63 135.21 6.14L135.21 6.14L135.21 5.61L135.72 5.63L135.72 8.97L135.21 8.97L135.21 8.24L135.21 8.24Q135.21 7.66 135.13 7.57L135.13 7.57L135.13 7.57Q135.05 7.46 134.70 7.46L134.70 7.46L132.60 7.46L132.60 7.46Q132.27 7.46 132.18 7.54L132.18 7.54L132.18 7.54Q132.10 7.63 132.10 7.89L132.10 7.89L132.10 11.20L132.10 11.20Q132.10 11.57 132.18 11.67L132.18 11.67L132.18 11.67Q132.27 11.77 132.54 11.77L132.54 11.77L132.54 11.77Q135.46 11.75 135.99 11.69L135.99 11.69L135.99 11.69Q136.51 11.63 136.59 11.38L136.59 11.38L136.60 11.36L136.60 11.35L136.83 10.17L137.31 10.25L136.96 12.41L129.86 12.41L129.86 11.87L130.22 11.87L130.22 11.87Q130.79 11.87 130.87 11.80L130.87 11.80L130.87 11.80Q130.96 11.72 130.96 11.33L130.96 11.33L130.96 4.24L130.96 4.24Q130.96 3.82 130.81 3.73L130.81 3.73L130.81 3.73Q130.64 3.64 129.99 3.64L129.99 3.64L129.59 3.64ZM145.67 3.64L145.18 3.64L145.18 3.08L148.70 3.08L148.68 3.64L147.94 3.64L147.94 3.64Q147.61 3.64 147.61 3.82L147.61 3.82L147.61 3.82Q147.61 3.98 147.80 4.48L147.80 4.48L150.40 10.94L153.34 4.18L153.34 4.18Q153.41 3.97 153.42 3.92L153.42 3.92L153.42 3.92Q153.42 3.79 153.32 3.74L153.32 3.74L153.32 3.74Q153.22 3.68 153.08 3.65L153.08 3.65L153.08 3.65Q153.00 3.64 152.73 3.64L152.73 3.64L152.28 3.64L152.26 3.08L155.09 3.08L155.07 3.64L154.66 3.64L154.66 3.64Q154.34 3.64 154.18 3.83L154.18 3.83L154.18 3.83Q154.10 3.93 153.64 4.94L153.64 4.94L153.64 4.94Q153.43 5.46 153.36 5.57L153.36 5.57L150.23 12.63L149.99 12.63L146.74 4.73L146.74 4.73Q146.42 3.93 146.28 3.79L146.28 3.79L146.28 3.79Q146.12 3.63 145.67 3.64L145.67 3.64ZM162.85 3.64L162.83 3.08L170.04 3.08L170.04 3.08Q170.06 4.14 170.11 5.28L170.11 5.28L169.57 5.30L169.57 5.30Q169.55 4.66 169.50 4.25L169.50 4.25L169.50 4.25Q169.46 3.89 169.40 3.80L169.40 3.80L169.40 3.80Q169.35 3.71 169.23 3.69L169.23 3.69L169.23 3.69Q169.13 3.68 168.55 3.68L168.55 3.68L166.17 3.68L166.17 3.68Q165.62 3.68 165.48 3.77L165.48 3.77L165.48 3.77Q165.35 3.86 165.35 4.33L165.35 4.33L165.35 6.28L165.35 6.28Q165.35 6.69 165.41 6.76L165.41 6.76L165.41 6.76Q165.48 6.84 165.82 6.84L165.82 6.84L167.93 6.84L167.93 6.84Q168.29 6.84 168.38 6.73L168.38 6.73L168.38 6.73Q168.46 6.63 168.46 6.14L168.46 6.14L168.46 5.61L168.98 5.63L168.98 8.97L168.46 8.97L168.46 8.24L168.46 8.24Q168.46 7.66 168.39 7.57L168.39 7.57L168.39 7.57Q168.31 7.46 167.96 7.46L167.96 7.46L165.86 7.46L165.86 7.46Q165.53 7.46 165.44 7.54L165.44 7.54L165.44 7.54Q165.35 7.63 165.35 7.89L165.35 7.89L165.35 11.20L165.35 11.20Q165.35 11.57 165.44 11.67L165.44 11.67L165.44 11.67Q165.53 11.77 165.80 11.77L165.80 11.77L165.80 11.77Q168.72 11.75 169.24 11.69L169.24 11.69L169.24 11.69Q169.76 11.63 169.85 11.38L169.85 11.38L169.85 11.36L169.86 11.35L170.08 10.17L170.56 10.25L170.21 12.41L163.11 12.41L163.11 11.87L163.48 11.87L163.48 11.87Q164.04 11.87 164.12 11.80L164.12 11.80L164.12 11.80Q164.22 11.72 164.22 11.33L164.22 11.33L164.22 4.24L164.22 4.24Q164.22 3.82 164.07 3.73L164.07 3.73L164.07 3.73Q163.90 3.64 163.24 3.64L163.24 3.64L162.85 3.64ZM178.77 3.64L178.38 3.64L178.40 3.08L181.62 3.08L181.62 3.08Q182.75 3.08 183.35 3.21L183.35 3.21L183.35 3.21Q184.00 3.37 184.46 3.75L184.46 3.75L184.46 3.75Q185.47 4.57 185.47 5.71L185.47 5.71L185.47 5.71Q185.47 6.43 184.99 7.04L184.99 7.04L184.99 7.04Q184.50 7.66 183.47 7.92L183.47 7.92L186.16 11.49L186.16 11.49Q186.46 11.87 186.76 11.87L186.76 11.87L187.36 11.87L187.39 12.41L185.36 12.41L182.36 8.10L182.19 8.10L182.19 8.10Q182.15 8.10 182.10 8.11L182.10 8.11L182.10 8.11Q182.04 8.11 182.03 8.11L182.03 8.11L182.03 8.11Q181.15 8.11 180.75 8.03L180.75 8.03L180.75 11.46L180.75 11.46Q180.75 11.76 180.89 11.81L180.89 11.81L180.89 11.81Q181.02 11.87 181.72 11.87L181.72 11.87L182.43 11.87L182.40 12.41L178.68 12.41L178.68 11.87L179.00 11.87L179.00 11.87Q179.46 11.87 179.53 11.81L179.53 11.81L179.53 11.81Q179.61 11.74 179.61 11.46L179.61 11.46L179.61 4.14L179.61 4.14Q179.61 3.82 179.42 3.73L179.42 3.73L179.42 3.73Q179.20 3.64 178.77 3.64L178.77 3.64ZM180.75 4.28L180.75 7.57L180.75 7.57Q180.93 7.70 181.64 7.71L181.64 7.71L181.64 7.71Q182.92 7.71 183.50 7.27L183.50 7.27L183.50 7.27Q184.08 6.84 184.08 5.92L184.08 5.92L184.08 5.92Q184.08 4.92 183.31 4.27L183.31 4.27L183.31 4.27Q182.55 3.64 181.17 3.64L181.17 3.64L181.17 3.64Q180.92 3.64 180.84 3.75L180.84 3.75L180.84 3.75Q180.76 3.84 180.75 4.28L180.75 4.28ZM204.85 3.64L204.85 3.64L204.87 3.08L208.00 3.08L208.00 3.64L207.72 3.64L207.72 3.64Q207.27 3.64 207.16 3.66L207.16 3.66L207.16 3.66Q206.99 3.71 206.99 3.82L206.99 3.82L206.99 3.82Q206.99 3.89 207.25 4.31L207.25 4.31L209.25 7.46L211.70 3.99L211.70 3.99Q211.78 3.83 211.78 3.82L211.78 3.82L211.78 3.82Q211.78 3.64 210.87 3.64L210.87 3.64L210.65 3.64L210.64 3.08L213.18 3.08L213.18 3.64L213.11 3.64L213.11 3.64Q212.76 3.64 212.62 3.72L212.62 3.72L212.62 3.72Q212.46 3.80 212.17 4.22L212.17 4.22L209.45 8.17L209.45 11.22L209.45 11.22Q209.45 11.66 209.56 11.77L209.56 11.77L209.56 11.77Q209.65 11.87 210.27 11.87L210.27 11.87L210.90 11.87L210.88 12.41L206.95 12.41L206.96 11.87L207.53 11.87L207.53 11.87Q208.06 11.87 208.19 11.79L208.19 11.79L208.19 11.79Q208.31 11.70 208.31 11.25L208.31 11.25L208.31 8.06L206.01 4.49L206.01 4.49Q205.60 3.84 205.47 3.73L205.47 3.73L205.47 3.73Q205.36 3.64 204.85 3.64ZM221.30 7.83L221.30 7.83L221.30 7.83Q221.30 6.62 221.70 5.68L221.70 5.68L221.70 5.68Q222.12 4.72 222.81 4.12L222.81 4.12L222.81 4.12Q223.50 3.51 224.36 3.19L224.36 3.19L224.36 3.19Q225.20 2.88 226.15 2.88L226.15 2.88L226.15 2.88Q227.41 2.88 228.46 3.40L228.46 3.40L228.46 3.40Q229.54 3.93 230.25 5.07L230.25 5.07L230.25 5.07Q230.95 6.17 230.96 7.75L230.96 7.75L230.96 7.75Q230.96 8.70 230.65 9.54L230.65 9.54L230.65 9.54Q230.34 10.38 229.74 11.10L229.74 11.10L229.74 11.10Q229.13 11.81 228.20 12.22L228.20 12.22L228.20 12.22Q227.23 12.63 226.04 12.64L226.04 12.64L226.04 12.64Q224.91 12.64 223.97 12.23L223.97 12.23L223.97 12.23Q223.04 11.83 222.48 11.14L222.48 11.14L222.48 11.14Q221.90 10.45 221.61 9.60L221.61 9.60L221.61 9.60Q221.30 8.72 221.30 7.83ZM222.56 7.38L222.56 7.38L222.56 7.38Q222.56 8.52 222.99 9.60L222.99 9.60L222.99 9.60Q223.39 10.64 224.32 11.33L224.32 11.33L224.32 11.33Q225.23 12.03 226.42 12.04L226.42 12.04L226.42 12.04Q227.79 12.04 228.73 11.01L228.73 11.01L228.73 11.01Q229.68 9.97 229.68 8.10L229.68 8.10L229.68 8.10Q229.68 5.99 228.52 4.72L228.52 4.72L228.52 4.72Q227.37 3.46 225.86 3.45L225.86 3.45L225.86 3.45Q225.34 3.45 224.80 3.65L224.80 3.65L224.80 3.65Q224.25 3.85 223.75 4.25L223.75 4.25L223.75 4.25Q223.20 4.68 222.88 5.48L222.88 5.48L222.88 5.48Q222.56 6.27 222.56 7.38ZM239.46 3.64L239.07 3.64L239.07 3.08L242.44 3.08L242.45 3.64L241.92 3.64L241.92 3.64Q241.49 3.64 241.33 3.73L241.33 3.73L241.33 3.73Q241.16 3.83 241.16 4.16L241.16 4.16L241.16 9.33L241.16 9.33Q241.16 9.63 241.19 9.78L241.19 9.78L241.19 9.78Q241.23 10.01 241.40 10.41L241.40 10.41L241.40 10.41Q241.57 10.80 241.86 11.09L241.86 11.09L241.86 11.09Q242.17 11.40 242.73 11.63L242.73 11.63L242.73 11.63Q243.30 11.85 244.08 11.85L244.08 11.85L244.08 11.85Q244.94 11.85 245.49 11.67L245.49 11.67L245.49 11.67Q246.05 11.48 246.35 11.22L246.35 11.22L246.35 11.22Q246.66 10.96 246.80 10.49L246.80 10.49L246.80 10.49Q246.98 9.95 246.98 9.66L246.98 9.66L246.98 9.66Q247.01 9.18 247.02 8.67L247.02 8.67L247.02 4.14L247.02 4.14Q247.02 3.81 246.87 3.72L246.87 3.72L246.87 3.72Q246.72 3.64 246.24 3.64L246.24 3.64L245.75 3.64L245.78 3.08L248.41 3.08L248.41 3.64L248.22 3.64L248.22 3.64Q247.90 3.64 247.79 3.75L247.79 3.75L247.79 3.75Q247.67 3.86 247.67 4.25L247.67 4.25L247.67 9.22L247.67 9.22Q247.67 12.67 244.08 12.67L244.08 12.67L244.08 12.67Q241.92 12.67 240.97 11.76L240.97 11.76L240.97 11.76Q240.03 10.86 240.03 9.41L240.03 9.41L240.03 4.14L240.03 4.14Q240.03 3.81 239.93 3.72L239.93 3.72L239.93 3.72Q239.82 3.64 239.46 3.64L239.46 3.64ZM266.10 3.64L265.86 3.64L265.86 3.08L268.97 3.08L268.95 3.64L268.65 3.64L268.65 3.64Q267.82 3.64 267.82 3.94L267.82 3.94L267.82 3.94Q267.82 4.03 267.85 4.09L267.85 4.09L270.27 10.76L272.58 4.85L272.48 4.57L272.48 4.57Q272.45 4.52 272.43 4.44L272.43 4.44L272.43 4.44Q272.41 4.36 272.39 4.31L272.39 4.31L272.39 4.31Q272.37 4.25 272.36 4.22L272.36 4.22L272.36 4.22Q272.33 4.16 272.23 3.96L272.23 3.96L272.23 3.96Q272.15 3.80 272.04 3.71L272.04 3.71L272.04 3.71Q271.95 3.64 271.78 3.64L271.78 3.64L271.10 3.64L271.10 3.08L274.43 3.08L274.43 3.64L273.69 3.64L273.69 3.64Q273.46 3.64 273.40 3.68L273.40 3.68L273.40 3.68Q273.33 3.72 273.32 3.86L273.32 3.86L273.32 3.86Q273.32 4.00 273.57 4.76L273.57 4.76L275.62 10.72L278.11 4.18L278.11 4.18Q278.17 4.01 278.17 3.94L278.17 3.94L278.17 3.94Q278.17 3.75 278.00 3.69L278.00 3.69L278.00 3.69Q277.84 3.64 277.48 3.64L277.48 3.64L277.12 3.64L277.12 3.08L279.51 3.08L279.53 3.64L279.36 3.64L279.36 3.64Q279.01 3.64 278.91 3.77L278.91 3.77L278.91 3.77Q278.79 3.96 278.54 4.60L278.54 4.60L275.45 12.64L275.21 12.64L272.84 5.64L270.12 12.63L269.90 12.63L266.92 4.52L266.92 4.52Q266.71 3.96 266.55 3.79L266.55 3.79L266.55 3.79Q266.39 3.63 266.10 3.64L266.10 3.64ZM287.27 12.41L287.26 11.87L287.43 11.87L287.43 11.87Q287.82 11.87 287.95 11.73L287.95 11.73L287.95 11.73Q288.07 11.57 288.41 10.83L288.41 10.83L289.32 8.82L289.89 7.53L289.89 7.53Q290.16 6.97 290.20 6.86L290.20 6.86L290.20 6.86Q290.27 6.70 290.32 6.60L290.32 6.60L290.32 6.60Q290.37 6.51 290.38 6.45L290.38 6.45L290.48 6.21L291.91 2.74L292.20 2.74L292.20 2.74Q293.06 4.98 295.24 10.25L295.24 10.25L295.24 10.25Q295.70 11.34 295.89 11.64L295.89 11.64L295.89 11.64Q296.02 11.87 296.46 11.87L296.46 11.87L296.67 11.87L296.66 12.41L293.47 12.41L293.48 11.87L293.90 11.87L293.90 11.87Q294.51 11.87 294.51 11.70L294.51 11.70L294.51 11.70Q294.51 11.63 294.38 11.27L294.38 11.27L293.34 8.72L290.09 8.72L288.98 11.18L288.98 11.18Q288.85 11.50 288.85 11.63L288.85 11.63L288.85 11.63Q288.85 11.79 288.94 11.83L288.94 11.83L288.94 11.83Q289.04 11.87 289.42 11.87L289.42 11.87L289.99 11.87L289.99 12.41L287.27 12.41ZM291.77 4.79L290.36 8.10L293.10 8.10L291.77 4.79ZM304.42 3.64L304.40 3.08L306.58 3.08L312.31 10.48L312.31 4.14L312.31 4.14Q312.31 3.81 312.16 3.72L312.16 3.72L312.16 3.72Q312.01 3.64 311.55 3.64L311.55 3.64L311.06 3.64L311.08 3.08L314.06 3.08L314.06 3.64L313.74 3.64L313.74 3.64Q313.28 3.64 313.13 3.75L313.13 3.75L313.13 3.75Q312.98 3.86 312.98 4.25L312.98 4.25L312.98 12.32L312.98 12.47L312.98 12.47Q312.98 12.52 312.96 12.57L312.96 12.57L312.96 12.57Q312.95 12.61 312.92 12.64L312.92 12.64L312.92 12.64Q312.90 12.65 312.85 12.65L312.85 12.65L312.66 12.65L312.59 12.65L312.57 12.65L312.54 12.64L312.54 12.64Q312.51 12.64 312.50 12.63L312.50 12.63L312.50 12.63Q312.48 12.61 312.48 12.60L312.48 12.60L312.48 12.60Q312.48 12.58 312.47 12.57L312.47 12.57L312.47 12.57Q312.44 12.54 312.42 12.50L312.42 12.50L312.42 12.50Q312.40 12.48 312.38 12.45L312.38 12.45L312.38 12.45Q312.36 12.41 312.35 12.40L312.35 12.40L306.24 4.56L306.31 11.22L306.31 11.22Q306.31 11.67 306.48 11.77L306.48 11.77L306.48 11.77Q306.63 11.87 307.34 11.87L307.34 11.87L307.58 11.87L307.58 12.41L304.64 12.41L304.64 11.87L305.07 11.87L305.07 11.87Q305.44 11.87 305.55 11.76L305.55 11.76L305.55 11.76Q305.65 11.66 305.66 11.25L305.66 11.25L305.66 3.80L305.51 3.64L304.42 3.64ZM322.08 5.35L321.58 5.33L321.58 5.33Q321.71 4.17 321.79 3.08L321.79 3.08L329.87 3.08L329.87 3.08Q329.79 4.13 329.76 4.53L329.76 4.53L329.76 4.53Q329.72 5.26 329.70 5.32L329.70 5.32L329.20 5.30L329.20 5.30Q329.28 4.34 329.28 4.16L329.28 4.16L329.28 4.16Q329.28 3.88 329.14 3.79L329.14 3.79L329.14 3.79Q328.97 3.69 328.56 3.69L328.56 3.69L326.96 3.69L326.96 3.69Q326.45 3.69 326.33 3.79L326.33 3.79L326.33 3.79Q326.23 3.87 326.22 4.36L326.22 4.36L326.22 11.22L326.22 11.22Q326.22 11.66 326.37 11.76L326.37 11.76L326.37 11.76Q326.53 11.87 327.04 11.87L327.04 11.87L327.60 11.87L327.61 12.41L323.92 12.40L323.92 11.87L324.14 11.87L324.14 11.87Q324.81 11.87 324.95 11.79L324.95 11.79L324.95 11.79Q325.10 11.70 325.10 11.28L325.10 11.28L325.10 4.48L325.10 4.48Q325.10 3.92 325.00 3.80L325.00 3.80L325.00 3.80Q324.90 3.69 324.47 3.69L324.47 3.69L323.00 3.69L323.00 3.69Q322.82 3.69 322.75 3.71L322.75 3.71L322.75 3.71Q322.68 3.72 322.57 3.72L322.57 3.72L322.57 3.72Q322.55 3.72 322.43 3.79L322.43 3.79L322.43 3.79Q322.35 3.84 322.32 3.86L322.32 3.86L322.32 3.86Q322.29 3.88 322.25 3.99L322.25 3.99L322.25 3.99Q322.23 4.05 322.20 4.14L322.20 4.14L322.20 4.14Q322.17 4.21 322.15 4.36L322.15 4.36L322.15 4.36Q322.12 4.59 322.12 4.61L322.12 4.61L322.12 4.61Q322.12 4.80 322.11 4.95L322.11 4.95L322.11 4.95Q322.11 5.02 322.10 5.15L322.10 5.15L322.10 5.15Q322.10 5.29 322.08 5.35L322.08 5.35ZM337.72 14.26L337.72 14.26L337.72 14.26Q337.72 14.18 337.87 14.07L337.87 14.07L337.87 14.07Q337.90 14.04 338.21 13.86L338.21 13.86L338.21 13.86Q338.40 13.73 338.55 13.48L338.55 13.48L338.55 13.48Q338.71 13.21 338.70 12.87L338.70 12.87L338.70 12.87Q338.70 12.65 338.60 12.48L338.60 12.48L338.60 12.48Q338.52 12.33 338.39 12.28L338.39 12.28L338.39 12.28Q338.31 12.24 338.19 12.15L338.19 12.15L338.19 12.15Q338.10 12.08 338.10 12.00L338.10 12.00L338.10 12.00Q338.10 11.84 338.38 11.59L338.38 11.59L338.38 11.59Q338.66 11.33 338.74 11.33L338.74 11.33L338.74 11.33Q338.77 11.33 338.97 11.39L338.97 11.39L338.97 11.39Q339.09 11.43 339.32 11.72L339.32 11.72L339.32 11.72Q339.53 12.00 339.53 12.44L339.53 12.44L339.53 12.44Q339.53 12.86 339.35 13.31L339.35 13.31L339.35 13.31Q339.17 13.76 338.90 14.03L338.90 14.03L338.90 14.03Q338.47 14.46 337.90 14.46L337.90 14.46L337.90 14.46Q337.72 14.46 337.72 14.26ZM357.68 3.64L357.44 3.64L357.44 3.08L360.54 3.08L360.53 3.64L360.22 3.64L360.22 3.64Q359.39 3.64 359.39 3.94L359.39 3.94L359.39 3.94Q359.39 4.03 359.43 4.09L359.43 4.09L361.85 10.76L364.16 4.85L364.05 4.57L364.05 4.57Q364.03 4.52 364.01 4.44L364.01 4.44L364.01 4.44Q363.99 4.36 363.97 4.31L363.97 4.31L363.97 4.31Q363.95 4.25 363.93 4.22L363.93 4.22L363.93 4.22Q363.90 4.16 363.81 3.96L363.81 3.96L363.81 3.96Q363.73 3.80 363.61 3.71L363.61 3.71L363.61 3.71Q363.53 3.64 363.36 3.64L363.36 3.64L362.67 3.64L362.67 3.08L366.00 3.08L366.00 3.64L365.26 3.64L365.26 3.64Q365.03 3.64 364.97 3.68L364.97 3.68L364.97 3.68Q364.90 3.72 364.90 3.86L364.90 3.86L364.90 3.86Q364.90 4.00 365.15 4.76L365.15 4.76L367.19 10.72L369.69 4.18L369.69 4.18Q369.74 4.01 369.74 3.94L369.74 3.94L369.74 3.94Q369.74 3.75 369.57 3.69L369.57 3.69L369.57 3.69Q369.41 3.64 369.06 3.64L369.06 3.64L368.69 3.64L368.69 3.08L371.09 3.08L371.10 3.64L370.93 3.64L370.93 3.64Q370.58 3.64 370.49 3.77L370.49 3.77L370.49 3.77Q370.36 3.96 370.12 4.60L370.12 4.60L367.03 12.64L366.79 12.64L364.41 5.64L361.69 12.63L361.47 12.63L358.50 4.52L358.50 4.52Q358.29 3.96 358.12 3.79L358.12 3.79L358.12 3.79Q357.96 3.63 357.68 3.64L357.68 3.64ZM379.20 3.64L378.83 3.64L378.83 3.08L382.32 3.08L382.32 3.64L381.96 3.64L381.96 3.64Q381.45 3.64 381.30 3.75L381.30 3.75L381.30 3.75Q381.17 3.84 381.16 4.25L381.16 4.25L381.16 6.91L385.71 6.91L385.71 4.14L385.71 4.14Q385.71 3.77 385.62 3.71L385.62 3.71L385.62 3.71Q385.51 3.64 384.98 3.64L384.98 3.64L384.39 3.64L384.38 3.08L387.93 3.08L387.93 3.64L387.54 3.64L387.54 3.64Q387.06 3.64 386.96 3.74L386.96 3.74L386.96 3.74Q386.85 3.83 386.85 4.22L386.85 4.22L386.85 11.29L386.85 11.29Q386.85 11.67 386.98 11.77L386.98 11.77L386.98 11.77Q387.14 11.87 387.69 11.87L387.69 11.87L388.16 11.87L388.14 12.41L384.66 12.41L384.64 11.87L385.05 11.87L385.05 11.87Q385.52 11.87 385.62 11.77L385.62 11.77L385.62 11.77Q385.71 11.67 385.71 11.25L385.71 11.25L385.71 7.58L381.16 7.58L381.16 11.25L381.16 11.25Q381.16 11.67 381.31 11.77L381.31 11.77L381.31 11.77Q381.47 11.87 382.17 11.87L382.17 11.87L382.57 11.87L382.55 12.41L378.96 12.41L378.95 11.87L379.31 11.87L379.31 11.87Q379.86 11.87 379.93 11.80L379.93 11.80L379.93 11.80Q380.02 11.70 380.02 11.25L380.02 11.25L380.02 4.09L380.02 4.09Q380.02 3.76 379.89 3.71L379.89 3.71L379.89 3.71Q379.72 3.64 379.20 3.64L379.20 3.64ZM395.91 3.64L395.90 3.08L403.11 3.08L403.11 3.08Q403.12 4.14 403.18 5.28L403.18 5.28L402.63 5.30L402.63 5.30Q402.62 4.66 402.56 4.25L402.56 4.25L402.56 4.25Q402.52 3.89 402.47 3.80L402.47 3.80L402.47 3.80Q402.41 3.71 402.29 3.69L402.29 3.69L402.29 3.69Q402.20 3.68 401.61 3.68L401.61 3.68L399.23 3.68L399.23 3.68Q398.69 3.68 398.54 3.77L398.54 3.77L398.54 3.77Q398.42 3.86 398.42 4.33L398.42 4.33L398.42 6.28L398.42 6.28Q398.42 6.69 398.47 6.76L398.47 6.76L398.47 6.76Q398.54 6.84 398.88 6.84L398.88 6.84L401.00 6.84L401.00 6.84Q401.36 6.84 401.44 6.73L401.44 6.73L401.44 6.73Q401.52 6.63 401.53 6.14L401.53 6.14L401.53 5.61L402.04 5.63L402.04 8.97L401.53 8.97L401.53 8.24L401.53 8.24Q401.53 7.66 401.45 7.57L401.45 7.57L401.45 7.57Q401.37 7.46 401.02 7.46L401.02 7.46L398.92 7.46L398.92 7.46Q398.59 7.46 398.50 7.54L398.50 7.54L398.50 7.54Q398.42 7.63 398.42 7.89L398.42 7.89L398.42 11.20L398.42 11.20Q398.42 11.57 398.50 11.67L398.50 11.67L398.50 11.67Q398.59 11.77 398.86 11.77L398.86 11.77L398.86 11.77Q401.78 11.75 402.31 11.69L402.31 11.69L402.31 11.69Q402.83 11.63 402.91 11.38L402.91 11.38L402.92 11.36L402.92 11.35L403.15 10.17L403.63 10.25L403.28 12.41L396.18 12.41L396.18 11.87L396.55 11.87L396.55 11.87Q397.11 11.87 397.19 11.80L397.19 11.80L397.19 11.80Q397.28 11.72 397.28 11.33L397.28 11.33L397.28 4.24L397.28 4.24Q397.28 3.82 397.13 3.73L397.13 3.73L397.13 3.73Q396.96 3.64 396.31 3.64L396.31 3.64L395.91 3.64ZM411.52 3.64L411.50 3.08L413.68 3.08L419.41 10.48L419.41 4.14L419.41 4.14Q419.41 3.81 419.26 3.72L419.26 3.72L419.26 3.72Q419.10 3.64 418.65 3.64L418.65 3.64L418.15 3.64L418.18 3.08L421.16 3.08L421.16 3.64L420.84 3.64L420.84 3.64Q420.38 3.64 420.23 3.75L420.23 3.75L420.23 3.75Q420.08 3.86 420.08 4.25L420.08 4.25L420.08 12.32L420.08 12.47L420.08 12.47Q420.08 12.52 420.06 12.57L420.06 12.57L420.06 12.57Q420.05 12.61 420.01 12.64L420.01 12.64L420.01 12.64Q420 12.65 419.95 12.65L419.95 12.65L419.75 12.65L419.69 12.65L419.67 12.65L419.64 12.64L419.64 12.64Q419.61 12.64 419.60 12.63L419.60 12.63L419.60 12.63Q419.58 12.61 419.58 12.60L419.58 12.60L419.58 12.60Q419.58 12.58 419.57 12.57L419.57 12.57L419.57 12.57Q419.54 12.54 419.51 12.50L419.51 12.50L419.51 12.50Q419.50 12.48 419.48 12.45L419.48 12.45L419.48 12.45Q419.46 12.41 419.45 12.40L419.45 12.40L413.34 4.56L413.41 11.22L413.41 11.22Q413.41 11.67 413.57 11.77L413.57 11.77L413.57 11.77Q413.73 11.87 414.44 11.87L414.44 11.87L414.68 11.87L414.68 12.41L411.74 12.41L411.74 11.87L412.17 11.87L412.17 11.87Q412.54 11.87 412.65 11.76L412.65 11.76L412.65 11.76Q412.75 11.66 412.75 11.25L412.75 11.25L412.75 3.80L412.61 3.64L411.52 3.64ZM428.91 3.64L428.90 3.08L436.11 3.08L436.11 3.08Q436.13 4.14 436.18 5.28L436.18 5.28L435.63 5.30L435.63 5.30Q435.62 4.66 435.57 4.25L435.57 4.25L435.57 4.25Q435.52 3.89 435.47 3.80L435.47 3.80L435.47 3.80Q435.42 3.71 435.30 3.69L435.30 3.69L435.30 3.69Q435.20 3.68 434.62 3.68L434.62 3.68L432.24 3.68L432.24 3.68Q431.69 3.68 431.55 3.77L431.55 3.77L431.55 3.77Q431.42 3.86 431.42 4.33L431.42 4.33L431.42 6.28L431.42 6.28Q431.42 6.69 431.48 6.76L431.48 6.76L431.48 6.76Q431.55 6.84 431.89 6.84L431.89 6.84L434 6.84L434 6.84Q434.36 6.84 434.44 6.73L434.44 6.73L434.44 6.73Q434.53 6.63 434.53 6.14L434.53 6.14L434.53 5.61L435.05 5.63L435.05 8.97L434.53 8.97L434.53 8.24L434.53 8.24Q434.53 7.66 434.46 7.57L434.46 7.57L434.46 7.57Q434.38 7.46 434.03 7.46L434.03 7.46L431.93 7.46L431.93 7.46Q431.59 7.46 431.51 7.54L431.51 7.54L431.51 7.54Q431.42 7.63 431.42 7.89L431.42 7.89L431.42 11.20L431.42 11.20Q431.42 11.57 431.51 11.67L431.51 11.67L431.51 11.67Q431.59 11.77 431.87 11.77L431.87 11.77L431.87 11.77Q434.79 11.75 435.31 11.69L435.31 11.69L435.31 11.69Q435.83 11.63 435.91 11.38L435.91 11.38L435.92 11.36L435.93 11.35L436.15 10.17L436.63 10.25L436.28 12.41L429.18 12.41L429.18 11.87L429.55 11.87L429.55 11.87Q430.11 11.87 430.19 11.80L430.19 11.80L430.19 11.80Q430.29 11.72 430.29 11.33L430.29 11.33L430.29 4.24L430.29 4.24Q430.29 3.82 430.14 3.73L430.14 3.73L430.14 3.73Q429.97 3.64 429.31 3.64L429.31 3.64L428.91 3.64ZM445.00 3.64L444.51 3.64L444.51 3.08L448.02 3.08L448.01 3.64L447.27 3.64L447.27 3.64Q446.93 3.64 446.93 3.82L446.93 3.82L446.93 3.82Q446.93 3.98 447.13 4.48L447.13 4.48L449.73 10.94L452.67 4.18L452.67 4.18Q452.74 3.97 452.74 3.92L452.74 3.92L452.74 3.92Q452.74 3.79 452.65 3.74L452.65 3.74L452.65 3.74Q452.55 3.68 452.40 3.65L452.40 3.65L452.40 3.65Q452.32 3.64 452.05 3.64L452.05 3.64L451.61 3.64L451.58 3.08L454.42 3.08L454.39 3.64L453.99 3.64L453.99 3.64Q453.67 3.64 453.51 3.83L453.51 3.83L453.51 3.83Q453.43 3.93 452.96 4.94L452.96 4.94L452.96 4.94Q452.75 5.46 452.68 5.57L452.68 5.57L449.55 12.63L449.31 12.63L446.07 4.73L446.07 4.73Q445.74 3.93 445.60 3.79L445.60 3.79L445.60 3.79Q445.44 3.63 445.00 3.64L445.00 3.64ZM462.17 3.64L462.16 3.08L469.37 3.08L469.37 3.08Q469.38 4.14 469.44 5.28L469.44 5.28L468.89 5.30L468.89 5.30Q468.88 4.66 468.82 4.25L468.82 4.25L468.82 4.25Q468.78 3.89 468.73 3.80L468.73 3.80L468.73 3.80Q468.67 3.71 468.56 3.69L468.56 3.69L468.56 3.69Q468.46 3.68 467.87 3.68L467.87 3.68L465.49 3.68L465.49 3.68Q464.95 3.68 464.80 3.77L464.80 3.77L464.80 3.77Q464.68 3.86 464.68 4.33L464.68 4.33L464.68 6.28L464.68 6.28Q464.68 6.69 464.73 6.76L464.73 6.76L464.73 6.76Q464.80 6.84 465.14 6.84L465.14 6.84L467.26 6.84L467.26 6.84Q467.62 6.84 467.70 6.73L467.70 6.73L467.70 6.73Q467.78 6.63 467.79 6.14L467.79 6.14L467.79 5.61L468.30 5.63L468.30 8.97L467.79 8.97L467.79 8.24L467.79 8.24Q467.79 7.66 467.71 7.57L467.71 7.57L467.71 7.57Q467.63 7.46 467.28 7.46L467.28 7.46L465.19 7.46L465.19 7.46Q464.85 7.46 464.77 7.54L464.77 7.54L464.77 7.54Q464.68 7.63 464.68 7.89L464.68 7.89L464.68 11.20L464.68 11.20Q464.68 11.57 464.77 11.67L464.77 11.67L464.77 11.67Q464.85 11.77 465.12 11.77L465.12 11.77L465.12 11.77Q468.04 11.75 468.57 11.69L468.57 11.69L468.57 11.69Q469.09 11.63 469.17 11.38L469.17 11.38L469.18 11.36L469.18 11.35L469.41 10.17L469.89 10.25L469.54 12.41L462.44 12.41L462.44 11.87L462.81 11.87L462.81 11.87Q463.37 11.87 463.45 11.80L463.45 11.80L463.45 11.80Q463.54 11.72 463.54 11.33L463.54 11.33L463.54 4.24L463.54 4.24Q463.54 3.82 463.39 3.73L463.39 3.73L463.39 3.73Q463.22 3.64 462.57 3.64L462.57 3.64L462.17 3.64ZM478.10 3.64L477.71 3.64L477.72 3.08L480.94 3.08L480.94 3.08Q482.08 3.08 482.68 3.21L482.68 3.21L482.68 3.21Q483.32 3.37 483.79 3.75L483.79 3.75L483.79 3.75Q484.79 4.57 484.79 5.71L484.79 5.71L484.79 5.71Q484.79 6.43 484.32 7.04L484.32 7.04L484.32 7.04Q483.83 7.66 482.79 7.92L482.79 7.92L485.48 11.49L485.48 11.49Q485.79 11.87 486.08 11.87L486.08 11.87L486.68 11.87L486.71 12.41L484.68 12.41L481.69 8.10L481.52 8.10L481.52 8.10Q481.48 8.10 481.42 8.11L481.42 8.11L481.42 8.11Q481.37 8.11 481.35 8.11L481.35 8.11L481.35 8.11Q480.47 8.11 480.07 8.03L480.07 8.03L480.07 11.46L480.07 11.46Q480.07 11.76 480.22 11.81L480.22 11.81L480.22 11.81Q480.34 11.87 481.04 11.87L481.04 11.87L481.76 11.87L481.73 12.41L478.00 12.41L478.00 11.87L478.32 11.87L478.32 11.87Q478.79 11.87 478.86 11.81L478.86 11.81L478.86 11.81Q478.94 11.74 478.94 11.46L478.94 11.46L478.94 4.14L478.94 4.14Q478.94 3.82 478.75 3.73L478.75 3.73L478.75 3.73Q478.52 3.64 478.10 3.64L478.10 3.64ZM480.07 4.28L480.07 7.57L480.07 7.57Q480.26 7.70 480.97 7.71L480.97 7.71L480.97 7.71Q482.24 7.71 482.82 7.27L482.82 7.27L482.82 7.27Q483.41 6.84 483.41 5.92L483.41 5.92L483.41 5.92Q483.41 4.92 482.64 4.27L482.64 4.27L482.64 4.27Q481.88 3.64 480.50 3.64L480.50 3.64L480.50 3.64Q480.25 3.64 480.16 3.75L480.16 3.75L480.16 3.75Q480.08 3.84 480.07 4.28L480.07 4.28ZM504.18 3.64L504.18 3.64L504.19 3.08L507.33 3.08L507.33 3.64L507.05 3.64L507.05 3.64Q506.60 3.64 506.49 3.66L506.49 3.66L506.49 3.66Q506.32 3.71 506.32 3.82L506.32 3.82L506.32 3.82Q506.32 3.89 506.57 4.31L506.57 4.31L508.57 7.46L511.02 3.99L511.02 3.99Q511.10 3.83 511.11 3.82L511.11 3.82L511.11 3.82Q511.11 3.64 510.19 3.64L510.19 3.64L509.97 3.64L509.96 3.08L512.50 3.08L512.50 3.64L512.44 3.64L512.44 3.64Q512.09 3.64 511.94 3.72L511.94 3.72L511.94 3.72Q511.79 3.80 511.50 4.22L511.50 4.22L508.77 8.17L508.77 11.22L508.77 11.22Q508.77 11.66 508.88 11.77L508.88 11.77L508.88 11.77Q508.98 11.87 509.59 11.87L509.59 11.87L510.23 11.87L510.21 12.41L506.28 12.41L506.29 11.87L506.85 11.87L506.85 11.87Q507.38 11.87 507.51 11.79L507.51 11.79L507.51 11.79Q507.64 11.70 507.64 11.25L507.64 11.25L507.64 8.06L505.34 4.49L505.34 4.49Q504.92 3.84 504.79 3.73L504.79 3.73L504.79 3.73Q504.68 3.64 504.18 3.64ZM520.63 7.83L520.63 7.83L520.63 7.83Q520.63 6.62 521.03 5.68L521.03 5.68L521.03 5.68Q521.45 4.72 522.14 4.12L522.14 4.12L522.14 4.12Q522.83 3.51 523.69 3.19L523.69 3.19L523.69 3.19Q524.53 2.88 525.48 2.88L525.48 2.88L525.48 2.88Q526.74 2.88 527.79 3.40L527.79 3.40L527.79 3.40Q528.87 3.93 529.58 5.07L529.58 5.07L529.58 5.07Q530.28 6.17 530.28 7.75L530.28 7.75L530.28 7.75Q530.28 8.70 529.98 9.54L529.98 9.54L529.98 9.54Q529.67 10.38 529.06 11.10L529.06 11.10L529.06 11.10Q528.46 11.81 527.52 12.22L527.52 12.22L527.52 12.22Q526.56 12.63 525.37 12.64L525.37 12.64L525.37 12.64Q524.23 12.64 523.30 12.23L523.30 12.23L523.30 12.23Q522.36 11.83 521.80 11.14L521.80 11.14L521.80 11.14Q521.23 10.45 520.93 9.60L520.93 9.60L520.93 9.60Q520.63 8.72 520.63 7.83ZM521.88 7.38L521.88 7.38L521.88 7.38Q521.88 8.52 522.31 9.60L522.31 9.60L522.31 9.60Q522.72 10.64 523.65 11.33L523.65 11.33L523.65 11.33Q524.56 12.03 525.75 12.04L525.75 12.04L525.75 12.04Q527.12 12.04 528.06 11.01L528.06 11.01L528.06 11.01Q529.01 9.97 529.01 8.10L529.01 8.10L529.01 8.10Q529.01 5.99 527.84 4.72L527.84 4.72L527.84 4.72Q526.70 3.46 525.18 3.45L525.18 3.45L525.18 3.45Q524.67 3.45 524.12 3.65L524.12 3.65L524.12 3.65Q523.58 3.85 523.07 4.25L523.07 4.25L523.07 4.25Q522.53 4.68 522.20 5.48L522.20 5.48L522.20 5.48Q521.88 6.27 521.88 7.38ZM538.78 3.64L538.40 3.64L538.40 3.08L541.76 3.08L541.78 3.64L541.24 3.64L541.24 3.64Q540.81 3.64 540.65 3.73L540.65 3.73L540.65 3.73Q540.48 3.83 540.48 4.16L540.48 4.16L540.48 9.33L540.48 9.33Q540.48 9.63 540.52 9.78L540.52 9.78L540.52 9.78Q540.56 10.01 540.72 10.41L540.72 10.41L540.72 10.41Q540.89 10.80 541.19 11.09L541.19 11.09L541.19 11.09Q541.50 11.40 542.06 11.63L542.06 11.63L542.06 11.63Q542.63 11.85 543.41 11.85L543.41 11.85L543.41 11.85Q544.26 11.85 544.81 11.67L544.81 11.67L544.81 11.67Q545.37 11.48 545.68 11.22L545.68 11.22L545.68 11.22Q545.99 10.96 546.13 10.49L546.13 10.49L546.13 10.49Q546.30 9.95 546.31 9.66L546.31 9.66L546.31 9.66Q546.33 9.18 546.34 8.67L546.34 8.67L546.34 4.14L546.34 4.14Q546.34 3.81 546.20 3.72L546.20 3.72L546.20 3.72Q546.05 3.64 545.57 3.64L545.57 3.64L545.08 3.64L545.10 3.08L547.74 3.08L547.74 3.64L547.54 3.64L547.54 3.64Q547.22 3.64 547.11 3.75L547.11 3.75L547.11 3.75Q547.00 3.86 547.00 4.25L547.00 4.25L547.00 9.22L547.00 9.22Q547.00 12.67 543.41 12.67L543.41 12.67L543.41 12.67Q541.24 12.67 540.29 11.76L540.29 11.76L540.29 11.76Q539.36 10.86 539.36 9.41L539.36 9.41L539.36 4.14L539.36 4.14Q539.36 3.81 539.25 3.72L539.25 3.72L539.25 3.72Q539.14 3.64 538.78 3.64L538.78 3.64ZM565.43 3.64L565.19 3.64L565.19 3.08L568.29 3.08L568.28 3.64L567.97 3.64L567.97 3.64Q567.14 3.64 567.14 3.94L567.14 3.94L567.14 3.94Q567.14 4.03 567.18 4.09L567.18 4.09L569.60 10.76L571.91 4.85L571.81 4.57L571.81 4.57Q571.78 4.52 571.76 4.44L571.76 4.44L571.76 4.44Q571.74 4.36 571.72 4.31L571.72 4.31L571.72 4.31Q571.70 4.25 571.68 4.22L571.68 4.22L571.68 4.22Q571.66 4.16 571.56 3.96L571.56 3.96L571.56 3.96Q571.48 3.80 571.36 3.71L571.36 3.71L571.36 3.71Q571.28 3.64 571.11 3.64L571.11 3.64L570.42 3.64L570.42 3.08L573.75 3.08L573.75 3.64L573.02 3.64L573.02 3.64Q572.78 3.64 572.72 3.68L572.72 3.68L572.72 3.68Q572.65 3.72 572.65 3.86L572.65 3.86L572.65 3.86Q572.65 4.00 572.90 4.76L572.90 4.76L574.94 10.72L577.44 4.18L577.44 4.18Q577.49 4.01 577.49 3.94L577.49 3.94L577.49 3.94Q577.49 3.75 577.32 3.69L577.32 3.69L577.32 3.69Q577.17 3.64 576.81 3.64L576.81 3.64L576.44 3.64L576.44 3.08L578.84 3.08L578.85 3.64L578.68 3.64L578.68 3.64Q578.33 3.64 578.24 3.77L578.24 3.77L578.24 3.77Q578.12 3.96 577.87 4.60L577.87 4.60L574.78 12.64L574.54 12.64L572.16 5.64L569.44 12.63L569.22 12.63L566.25 4.52L566.25 4.52Q566.04 3.96 565.87 3.79L565.87 3.79L565.87 3.79Q565.71 3.63 565.43 3.64L565.43 3.64ZM586.60 12.41L586.58 11.87L586.76 11.87L586.76 11.87Q587.15 11.87 587.28 11.73L587.28 11.73L587.28 11.73Q587.40 11.57 587.73 10.83L587.73 10.83L588.64 8.82L589.22 7.53L589.22 7.53Q589.48 6.97 589.52 6.86L589.52 6.86L589.52 6.86Q589.59 6.70 589.64 6.60L589.64 6.60L589.64 6.60Q589.70 6.51 589.71 6.45L589.71 6.45L589.80 6.21L591.23 2.74L591.53 2.74L591.53 2.74Q592.38 4.98 594.57 10.25L594.57 10.25L594.57 10.25Q595.02 11.34 595.21 11.64L595.21 11.64L595.21 11.64Q595.35 11.87 595.79 11.87L595.79 11.87L596.00 11.87L595.98 12.41L592.79 12.41L592.81 11.87L593.22 11.87L593.22 11.87Q593.84 11.87 593.84 11.70L593.84 11.70L593.84 11.70Q593.84 11.63 593.70 11.27L593.70 11.27L592.66 8.72L589.42 8.72L588.31 11.18L588.31 11.18Q588.17 11.50 588.17 11.63L588.17 11.63L588.17 11.63Q588.17 11.79 588.27 11.83L588.27 11.83L588.27 11.83Q588.36 11.87 588.75 11.87L588.75 11.87L589.32 11.87L589.32 12.41L586.60 12.41ZM591.10 4.79L589.68 8.10L592.42 8.10L591.10 4.79ZM603.74 3.64L603.73 3.08L605.90 3.08L611.64 10.48L611.64 4.14L611.64 4.14Q611.64 3.81 611.48 3.72L611.48 3.72L611.48 3.72Q611.33 3.64 610.87 3.64L610.87 3.64L610.38 3.64L610.41 3.08L613.39 3.08L613.39 3.64L613.07 3.64L613.07 3.64Q612.60 3.64 612.45 3.75L612.45 3.75L612.45 3.75Q612.30 3.86 612.30 4.25L612.30 4.25L612.30 12.32L612.30 12.47L612.30 12.47Q612.30 12.52 612.29 12.57L612.29 12.57L612.29 12.57Q612.27 12.61 612.24 12.64L612.24 12.64L612.24 12.64Q612.23 12.65 612.17 12.65L612.17 12.65L611.98 12.65L611.92 12.65L611.89 12.65L611.86 12.64L611.86 12.64Q611.84 12.64 611.82 12.63L611.82 12.63L611.82 12.63Q611.81 12.61 611.81 12.60L611.81 12.60L611.81 12.60Q611.81 12.58 611.80 12.57L611.80 12.57L611.80 12.57Q611.77 12.54 611.74 12.50L611.74 12.50L611.74 12.50Q611.73 12.48 611.71 12.45L611.71 12.45L611.71 12.45Q611.69 12.41 611.67 12.40L611.67 12.40L605.57 4.56L605.64 11.22L605.64 11.22Q605.64 11.67 605.80 11.77L605.80 11.77L605.80 11.77Q605.96 11.87 606.67 11.87L606.67 11.87L606.91 11.87L606.91 12.41L603.97 12.41L603.97 11.87L604.39 11.87L604.39 11.87Q604.77 11.87 604.88 11.76L604.88 11.76L604.88 11.76Q604.97 11.66 604.98 11.25L604.98 11.25L604.98 3.80L604.84 3.64L603.74 3.64ZM621.41 5.35L620.91 5.33L620.91 5.33Q621.03 4.17 621.11 3.08L621.11 3.08L629.19 3.08L629.19 3.08Q629.11 4.13 629.08 4.53L629.08 4.53L629.08 4.53Q629.04 5.26 629.02 5.32L629.02 5.32L628.52 5.30L628.52 5.30Q628.61 4.34 628.61 4.16L628.61 4.16L628.61 4.16Q628.61 3.88 628.46 3.79L628.46 3.79L628.46 3.79Q628.29 3.69 627.89 3.69L627.89 3.69L626.28 3.69L626.28 3.69Q625.78 3.69 625.65 3.79L625.65 3.79L625.65 3.79Q625.56 3.87 625.55 4.36L625.55 4.36L625.55 11.22L625.55 11.22Q625.55 11.66 625.69 11.76L625.69 11.76L625.69 11.76Q625.85 11.87 626.36 11.87L626.36 11.87L626.92 11.87L626.94 12.41L623.25 12.40L623.25 11.87L623.46 11.87L623.46 11.87Q624.13 11.87 624.28 11.79L624.28 11.79L624.28 11.79Q624.42 11.70 624.42 11.28L624.42 11.28L624.42 4.48L624.42 4.48Q624.42 3.92 624.32 3.80L624.32 3.80L624.32 3.80Q624.22 3.69 623.80 3.69L623.80 3.69L622.33 3.69L622.33 3.69Q622.15 3.69 622.08 3.71L622.08 3.71L622.08 3.71Q622.01 3.72 621.90 3.72L621.90 3.72L621.90 3.72Q621.87 3.72 621.76 3.79L621.76 3.79L621.76 3.79Q621.67 3.84 621.65 3.86L621.65 3.86L621.65 3.86Q621.62 3.88 621.58 3.99L621.58 3.99L621.58 3.99Q621.55 4.05 621.52 4.14L621.52 4.14L621.52 4.14Q621.50 4.21 621.48 4.36L621.48 4.36L621.48 4.36Q621.45 4.59 621.45 4.61L621.45 4.61L621.45 4.61Q621.45 4.80 621.43 4.95L621.43 4.95L621.43 4.95Q621.43 5.02 621.43 5.15L621.43 5.15L621.43 5.15Q621.42 5.29 621.41 5.35L621.41 5.35ZM638.09 11.94L638.09 11.94L638.09 11.94Q638.09 11.80 638.33 11.57L638.33 11.57L638.33 11.57Q638.57 11.35 638.70 11.35L638.70 11.35L638.70 11.35Q638.87 11.35 639.08 11.57L639.08 11.57L639.08 11.57Q639.29 11.81 639.28 11.95L639.28 11.95L639.28 11.95Q639.28 12.11 639.06 12.33L639.06 12.33L639.06 12.33Q638.84 12.55 638.68 12.55L638.68 12.55L638.68 12.55Q638.54 12.55 638.32 12.33L638.32 12.33L638.32 12.33Q638.09 12.11 638.09 11.94ZM638.11 3.73L638.11 3.73L638.11 3.73Q638.11 3.47 638.46 3.37L638.46 3.37L638.46 3.37Q638.80 3.27 639.03 3.27L639.03 3.27L639.03 3.27Q639.21 3.27 639.21 3.42L639.21 3.42L639.21 3.42Q639.19 4.42 639.03 6.17L639.03 6.17L639.03 6.17Q638.85 8.15 638.84 8.86L638.84 8.86L638.84 9.24L638.84 9.24Q638.84 9.30 638.83 9.42L638.83 9.42L638.83 9.42Q638.83 9.53 638.83 9.56L638.83 9.56L638.83 9.81L638.83 9.81Q638.83 9.93 638.80 10.02L638.80 10.02L638.80 10.02Q638.80 10.04 638.78 10.09L638.78 10.09L638.78 10.09Q638.77 10.14 638.76 10.16L638.76 10.16L638.76 10.16Q638.73 10.23 638.68 10.26L638.68 10.26L638.68 10.26Q638.63 10.29 638.59 10.29L638.59 10.29L638.59 10.29Q638.53 10.29 638.49 10.25L638.49 10.25L638.49 10.25Q638.44 10.21 638.42 10.13L638.42 10.13L638.42 10.13Q638.40 10.12 638.40 10.08L638.40 10.08L638.40 10.08Q638.40 10.04 638.39 10.01L638.39 10.01L638.39 10.01Q638.36 9.93 638.36 9.85L638.36 9.85L638.36 9.78L638.36 9.78Q638.11 6.65 638.11 3.73ZM649.35 11.94L649.35 11.94L649.35 11.94Q649.35 11.80 649.58 11.57L649.58 11.57L649.58 11.57Q649.82 11.35 649.95 11.35L649.95 11.35L649.95 11.35Q650.12 11.35 650.33 11.57L650.33 11.57L650.33 11.57Q650.54 11.81 650.54 11.95L650.54 11.95L650.54 11.95Q650.54 12.11 650.31 12.33L650.31 12.33L650.31 12.33Q650.09 12.55 649.93 12.55L649.93 12.55L649.93 12.55Q649.80 12.55 649.57 12.33L649.57 12.33L649.57 12.33Q649.35 12.11 649.35 11.94ZM649.36 3.73L649.36 3.73L649.36 3.73Q649.36 3.47 649.71 3.37L649.71 3.37L649.71 3.37Q650.05 3.27 650.28 3.27L650.28 3.27L650.28 3.27Q650.47 3.27 650.47 3.42L650.47 3.42L650.47 3.42Q650.44 4.42 650.28 6.17L650.28 6.17L650.28 6.17Q650.10 8.15 650.09 8.86L650.09 8.86L650.09 9.24L650.09 9.24Q650.09 9.30 650.08 9.42L650.08 9.42L650.08 9.42Q650.08 9.53 650.08 9.56L650.08 9.56L650.08 9.81L650.08 9.81Q650.08 9.93 650.05 10.02L650.05 10.02L650.05 10.02Q650.05 10.04 650.04 10.09L650.04 10.09L650.04 10.09Q650.02 10.14 650.01 10.16L650.01 10.16L650.01 10.16Q649.98 10.23 649.93 10.26L649.93 10.26L649.93 10.26Q649.88 10.29 649.84 10.29L649.84 10.29L649.84 10.29Q649.78 10.29 649.74 10.25L649.74 10.25L649.74 10.25Q649.69 10.21 649.67 10.13L649.67 10.13L649.67 10.13Q649.65 10.12 649.65 10.08L649.65 10.08L649.65 10.08Q649.65 10.04 649.64 10.01L649.64 10.01L649.64 10.01Q649.61 9.93 649.61 9.85L649.61 9.85L649.61 9.78L649.61 9.78Q649.36 6.65 649.36 3.73Z"></path></g></svg>