<svg data-v-423bf9ae="" xmlns="http://www.w3.org/2000/svg" viewBox="0 0 448.07780414559596 60" class="font"><!----><!----><!----><g data-v-423bf9ae="" id="45e8b0d0-0ff8-4d5a-835c-5fb707d8a5d5" fill="black" transform="matrix(4.743083146983607,0,0,4.743083146983607,-0.9871469447111281,-13.897233222041187)"><path d="M3.93 3.52L3.93 3.52L3.93 3.52Q3.39 3.50 2.96 3.62L2.96 3.62L2.96 3.62Q2.52 3.73 1.84 4.23L1.84 4.23L1.84 4.23Q1.15 4.74 0.65 5.75L0.65 5.75L0.65 5.75Q0.16 6.75 1.37 7.98L1.37 7.98L1.37 7.98Q-0.06 9.20 0.27 10.71L0.27 10.71L0.27 10.71Q0.68 12.27 3.22 12.71L3.22 12.71L3.22 12.71Q5.90 11.31 6.28 9.92L6.28 9.92L6.28 9.92Q6.65 8.52 5.38 7.73L5.38 7.73L4.12 9.34L4.12 9.34Q5.13 10.14 4.95 10.75L4.95 10.75L4.95 10.75Q4.76 11.35 3.83 11.28L3.83 11.28L3.83 11.28Q2.91 11.21 2.04 10.35L2.04 10.35L2.04 10.35Q1.18 9.49 1.76 8.20L1.76 8.20L1.76 8.20Q2.15 8.36 2.69 8.42L2.69 8.42L4.03 6.99L3.91 6.84L3.91 6.84Q2.35 6.84 1.95 6.44L1.95 6.44L1.95 6.44Q1.55 6.04 1.62 5.40L1.62 5.40L1.62 5.40Q1.68 4.76 2.33 4.63L2.33 4.63L2.33 4.63Q2.99 4.50 3.59 4.79L3.59 4.79L3.59 4.79Q4.18 5.07 4.09 5.59L4.09 5.59L4.25 5.69L5.40 4.44L5.40 4.44Q5.30 4.16 4.88 3.85L4.88 3.85L4.88 3.85Q4.47 3.53 3.93 3.52ZM9.42 7.64L9.42 7.64L9.55 7.79L9.55 7.79Q10.34 7.18 11.00 8.09L11.00 8.09L11.00 8.09Q11.66 9.00 11.62 9.94L11.62 9.94L11.62 9.94Q11.59 10.88 10.99 11.44L10.99 11.44L10.99 11.44Q10.40 11.50 8.13 6.84L8.13 6.84L8.13 6.84Q7.97 6.43 7.58 6.68L7.58 6.68L6.27 7.96L6.32 8.08L6.32 8.08Q6.71 7.77 7.11 8.43L7.11 8.43L9.15 12.24L9.15 12.24Q9.74 12.98 10.33 12.54L10.33 12.54L10.33 12.54Q10.92 12.09 11.43 11.52L11.43 11.52L11.43 11.52Q11.93 10.94 12.60 9.86L12.60 9.86L12.60 9.86Q13.26 8.78 12.71 7.68L12.71 7.68L12.71 7.68Q12.15 6.59 11.34 6.31L11.34 6.31L11.34 6.31Q10.52 6.03 9.42 7.64ZM16.47 6.60L16.47 6.60L16.47 6.60Q15.40 6.43 14.47 7.26L14.47 7.26L14.47 7.26Q13.54 8.09 13.28 9.20L13.28 9.20L13.28 9.20Q13.02 10.31 13.44 11.26L13.44 11.26L13.44 11.26Q13.86 12.22 15.00 12.62L15.00 12.62L15.00 12.62Q15.93 12.93 16.94 12.18L16.94 12.18L16.94 12.18Q17.94 11.43 18.26 10.77L18.26 10.77L18.05 10.61L18.05 10.61Q16.67 11.56 15.86 11.24L15.86 11.24L15.86 11.24Q15.04 10.92 14.90 10.51L14.90 10.51L16.38 9.54L16.38 9.54Q17.82 8.65 17.68 7.70L17.68 7.70L17.68 7.70Q17.53 6.76 16.47 6.60ZM14.38 8.64L14.38 8.64L14.38 8.64Q14.36 8.14 14.73 7.78L14.73 7.78L14.73 7.78Q15.11 7.41 15.72 7.78L15.72 7.78L15.72 7.78Q16.32 8.15 16.23 8.76L16.23 8.76L16.23 8.76Q16.13 9.37 14.69 10.14L14.69 10.14L14.69 10.14Q14.53 9.80 14.46 9.47L14.46 9.47L14.46 9.47Q14.40 9.14 14.38 8.64ZM20.24 6.42L18.57 7.64L18.72 7.87L18.72 7.87Q19.23 7.56 19.17 8.50L19.17 8.50L19.17 8.50Q19.11 11.46 19.20 11.91L19.20 11.91L19.20 11.91Q19.28 12.37 19.86 12.71L19.86 12.71L21.31 11.46L21.31 11.29L21.31 11.29Q20.85 11.40 20.73 10.78L20.73 10.78L20.73 10.78Q20.60 10.17 20.68 8.27L20.68 8.27L20.68 8.27Q21.55 7.48 22.22 8.43L22.22 8.43L23.45 7.29L23.45 7.29Q22.67 6.25 22.05 6.49L22.05 6.49L22.05 6.49Q21.42 6.72 20.71 7.62L20.71 7.62L20.71 7.62Q20.77 6.77 20.24 6.42L20.24 6.42ZM28.12 6.46L26.70 7.51L26.70 7.51Q27.02 7.48 26.97 8.18L26.97 8.18L26.97 11.11L26.63 11.49L26.63 11.49Q26.23 11.70 25.82 11.62L25.82 11.62L25.82 11.62Q25.41 11.55 25.29 10.94L25.29 10.94L25.29 7.57L25.29 7.57Q25.17 6.68 24.69 6.48L24.69 6.48L23.44 7.40L23.44 7.40Q23.85 7.68 23.82 8.52L23.82 8.52L23.82 11.02L23.82 11.02Q23.89 11.84 24.44 12.32L24.44 12.32L24.44 12.32Q24.99 12.80 25.79 12.73L25.79 12.73L25.79 12.73Q26.59 12.66 27.04 11.90L27.04 11.90L27.04 11.90Q27.14 13.30 27.01 13.91L27.01 13.91L27.01 13.91Q26.88 14.51 25.91 14.21L25.91 14.21L25.91 14.21Q24.94 13.90 23.94 12.96L23.94 12.96L22.86 14.21L22.86 14.21Q24.75 15.61 25.95 15.20L25.95 15.20L25.95 15.20Q27.15 14.80 27.81 14.31L27.81 14.31L27.81 14.31Q28.48 13.82 28.59 12.50L28.59 12.50L28.58 7.98L28.58 7.98Q28.65 6.99 28.12 6.46L28.12 6.46ZM30.58 2.93L29.16 3.90L29.16 3.90Q29.50 4.09 29.44 6.92L29.44 6.92L29.44 6.92Q29.39 9.76 29.48 10.51L29.48 10.51L29.48 10.51Q29.57 11.25 30.69 12.14L30.69 12.14L30.69 12.14Q31.81 13.02 32.62 12.50L32.62 12.50L32.62 12.50Q33.44 11.98 34.10 11.29L34.10 11.29L34.10 11.29Q34.77 10.60 34.94 9.51L34.94 9.51L34.94 9.51Q35.10 8.43 34.71 7.57L34.71 7.57L34.71 7.57Q34.32 6.71 33.17 6.51L33.17 6.51L33.17 6.51Q32.03 6.31 31.03 7.53L31.03 7.53L31.03 7.53Q31.10 3.88 30.91 3.42L30.91 3.42L30.91 3.42Q30.71 2.97 30.58 2.93L30.58 2.93ZM31.80 7.73L31.80 7.73L31.80 7.73Q32.33 7.65 32.82 8.03L32.82 8.03L32.82 8.03Q33.31 8.40 33.40 9.37L33.40 9.37L33.40 9.37Q33.48 10.34 33.00 11.52L33.00 11.52L33.00 11.52Q31.90 11.94 31.39 11.26L31.39 11.26L31.39 11.26Q30.87 10.58 31.07 8.12L31.07 8.12L31.07 8.12Q31.27 7.81 31.80 7.73ZM39.94 12.76L41.61 11.54L41.45 11.31L41.45 11.31Q41.00 11.40 41.00 10.68L41.00 10.68L41.00 10.68Q41.07 7.72 40.98 7.27L40.98 7.27L40.98 7.27Q40.89 6.82 40.32 6.47L40.32 6.47L38.87 7.72L38.94 7.85L38.94 7.85Q39.34 7.65 39.46 8.33L39.46 8.33L39.46 8.33Q39.57 9.02 39.50 10.91L39.50 10.91L39.50 10.91Q38.62 11.70 38.02 11.47L38.02 11.47L38.02 11.47Q37.41 11.25 37.42 9.81L37.42 9.81L37.42 9.81Q37.45 7.76 37.41 7.27L37.41 7.27L37.41 7.27Q37.36 6.78 36.82 6.42L36.82 6.42L35.40 7.69L35.53 7.85L35.53 7.85Q35.79 7.66 35.88 8.36L35.88 8.36L35.88 8.36Q35.96 9.07 35.91 10.51L35.91 10.51L35.91 10.51Q35.85 11.39 36.07 11.88L36.07 11.88L36.07 11.88Q36.29 12.38 36.91 12.63L36.91 12.63L36.91 12.63Q37.53 12.87 38.06 12.61L38.06 12.61L38.06 12.61Q38.60 12.35 38.94 12.07L38.94 12.07L38.94 12.07Q39.29 11.78 39.47 11.57L39.47 11.57L39.47 11.57Q39.41 12.41 39.94 12.76L39.94 12.76ZM46.88 2.93L46.88 2.93L45.55 3.85L45.55 3.85Q45.87 4.42 45.83 6.77L45.83 6.77L45.83 6.77Q45.33 6.51 44.90 6.55L44.90 6.55L44.90 6.55Q44.47 6.58 43.93 6.94L43.93 6.94L43.93 6.94Q43.40 7.30 42.78 7.91L42.78 7.91L42.78 7.91Q42.16 8.51 41.95 9.61L41.95 9.61L41.95 9.61Q41.74 10.71 42.37 11.71L42.37 11.71L42.37 11.71Q43.00 12.71 43.74 12.75L43.74 12.75L43.74 12.75Q44.48 12.78 45.94 11.28L45.94 11.28L45.94 11.28Q45.94 12.25 46.79 12.77L46.79 12.77L47.97 11.76L47.97 11.76Q47.26 11.37 47.37 7.21L47.37 7.21L47.37 7.21Q47.49 3.04 46.88 2.93ZM43.47 7.93L43.47 7.93Q44.54 7.84 44.95 8.83L44.95 8.83L45.86 8.05L45.86 8.45L45.88 8.62L45.88 10.73L45.80 10.76L45.80 10.76Q45.61 11.18 44.90 11.23L44.90 11.23L44.90 11.23Q44.19 11.29 43.61 10.33L43.61 10.33L43.61 10.33Q43.04 9.38 43.47 7.93L43.47 7.93ZM53.31 2.93L53.31 2.93L51.97 3.85L51.97 3.85Q52.29 4.42 52.25 6.77L52.25 6.77L52.25 6.77Q51.75 6.51 51.32 6.55L51.32 6.55L51.32 6.55Q50.89 6.58 50.36 6.94L50.36 6.94L50.36 6.94Q49.83 7.30 49.21 7.91L49.21 7.91L49.21 7.91Q48.59 8.51 48.38 9.61L48.38 9.61L48.38 9.61Q48.17 10.71 48.80 11.71L48.80 11.71L48.80 11.71Q49.43 12.71 50.17 12.75L50.17 12.75L50.17 12.75Q50.91 12.78 52.36 11.28L52.36 11.28L52.36 11.28Q52.36 12.25 53.21 12.77L53.21 12.77L54.40 11.76L54.40 11.76Q53.68 11.37 53.80 7.21L53.80 7.21L53.80 7.21Q53.92 3.04 53.31 2.93ZM49.90 7.93L49.90 7.93Q50.96 7.84 51.38 8.83L51.38 8.83L52.28 8.05L52.28 8.45L52.31 8.62L52.31 10.73L52.23 10.76L52.23 10.76Q52.04 11.18 51.32 11.23L51.32 11.23L51.32 11.23Q50.61 11.29 50.04 10.33L50.04 10.33L50.04 10.33Q49.46 9.38 49.90 7.93L49.90 7.93ZM59.50 6.46L58.08 7.51L58.08 7.51Q58.40 7.48 58.36 8.18L58.36 8.18L58.35 11.11L58.02 11.49L58.02 11.49Q57.61 11.70 57.20 11.62L57.20 11.62L57.20 11.62Q56.79 11.55 56.67 10.94L56.67 10.94L56.68 7.57L56.68 7.57Q56.55 6.68 56.08 6.48L56.08 6.48L54.82 7.40L54.82 7.40Q55.23 7.68 55.21 8.52L55.21 8.52L55.20 11.02L55.20 11.02Q55.28 11.84 55.83 12.32L55.83 12.32L55.83 12.32Q56.38 12.80 57.18 12.73L57.18 12.73L57.18 12.73Q57.98 12.66 58.42 11.90L58.42 11.90L58.42 11.90Q58.52 13.30 58.39 13.91L58.39 13.91L58.39 13.91Q58.26 14.51 57.29 14.21L57.29 14.21L57.29 14.21Q56.32 13.90 55.32 12.96L55.32 12.96L54.24 14.21L54.24 14.21Q56.13 15.61 57.33 15.20L57.33 15.20L57.33 15.20Q58.53 14.80 59.20 14.31L59.20 14.31L59.20 14.31Q59.86 13.82 59.97 12.50L59.97 12.50L59.96 7.98L59.96 7.98Q60.03 6.99 59.50 6.46L59.50 6.46ZM61.69 3.21L60.38 4.22L60.38 4.22Q60.31 4.35 60.40 4.44L60.40 4.44L60.40 4.44Q61.57 5.42 60.84 6.22L60.84 6.22L60.84 6.22Q60.78 6.43 61.00 6.47L61.00 6.47L61.00 6.47Q63.85 5.09 61.82 3.21L61.82 3.21L61.69 3.21ZM65.78 6.52L65.78 6.52L65.78 6.52Q65.06 6.63 64.61 6.92L64.61 6.92L64.61 6.92Q64.16 7.21 63.84 7.52L63.84 7.52L63.84 7.52Q63.53 7.84 63.36 8.41L63.36 8.41L63.36 8.41Q63.20 8.98 63.65 9.39L63.65 9.39L63.65 9.39Q64.11 9.80 65.16 10.02L65.16 10.02L65.16 10.02Q66.21 10.24 66.56 10.55L66.56 10.55L66.56 10.55Q66.90 10.87 66.93 11.14L66.93 11.14L66.93 11.14Q66.96 11.42 66.72 11.52L66.72 11.52L66.72 11.52Q66.47 11.61 65.96 11.54L65.96 11.54L65.96 11.54Q65.45 11.46 64.99 11.22L64.99 11.22L64.99 11.22Q64.52 10.99 64.19 10.65L64.19 10.65L64.19 10.65Q63.85 10.32 64.13 10.02L64.13 10.02L63.98 9.93L62.92 10.84L62.92 10.84Q62.79 11.20 63.19 11.67L63.19 11.67L63.19 11.67Q63.59 12.14 64.21 12.40L64.21 12.40L64.21 12.40Q64.83 12.66 65.47 12.70L65.47 12.70L65.47 12.70Q66.11 12.74 66.75 12.32L66.75 12.32L66.75 12.32Q67.40 11.90 67.70 11.35L67.70 11.35L67.70 11.35Q68.00 10.81 67.94 10.26L67.94 10.26L67.94 10.26Q67.87 9.71 67.52 9.30L67.52 9.30L67.52 9.30Q67.16 8.88 65.98 8.55L65.98 8.55L65.98 8.55Q64.80 8.22 64.61 7.84L64.61 7.84L64.61 7.84Q64.42 7.45 64.90 7.38L64.90 7.38L64.90 7.38Q65.39 7.31 66.05 7.63L66.05 7.63L66.05 7.63Q66.71 7.96 66.49 8.25L66.49 8.25L66.58 8.35L67.59 7.38L67.59 7.38Q67.49 6.92 66.99 6.67L66.99 6.67L66.99 6.67Q66.49 6.41 65.78 6.52ZM73.80 3.61L73.80 3.61L73.80 3.61Q73.22 3.75 72.73 4.18L72.73 4.18L72.73 4.18Q72.24 4.60 71.90 5.07L71.90 5.07L71.90 5.07Q71.56 5.54 71.54 6.25L71.54 6.25L71.54 6.25Q71.52 6.97 72.00 7.51L72.00 7.51L72.00 7.51Q72.47 8.06 73.63 8.61L73.63 8.61L73.63 8.61Q74.80 9.16 75.31 9.92L75.31 9.92L75.31 9.92Q75.82 10.68 75.37 11.10L75.37 11.10L75.37 11.10Q74.92 11.52 74.27 11.39L74.27 11.39L74.27 11.39Q73.61 11.25 73.01 10.89L73.01 10.89L73.01 10.89Q72.42 10.52 72.14 9.88L72.14 9.88L72.14 9.88Q71.87 9.24 72.17 8.81L72.17 8.81L72.00 8.68L70.90 9.95L70.90 9.95Q70.77 10.49 71.20 11.18L71.20 11.18L71.20 11.18Q71.63 11.87 72.41 12.33L72.41 12.33L72.41 12.33Q73.19 12.79 74.12 12.67L74.12 12.67L74.12 12.67Q75.06 12.54 75.89 11.37L75.89 11.37L75.89 11.37Q76.73 10.20 76.71 9.49L76.71 9.49L76.71 9.49Q76.69 8.78 76.20 8.17L76.20 8.17L76.20 8.17Q75.71 7.56 74.29 6.97L74.29 6.97L74.29 6.97Q72.88 6.38 72.71 5.74L72.71 5.74L72.71 5.74Q72.54 5.09 73.12 4.92L73.12 4.92L73.12 4.92Q73.70 4.76 74.32 5.10L74.32 5.10L74.32 5.10Q74.94 5.43 74.76 5.97L74.76 5.97L74.85 6.13L75.93 4.93L75.93 4.93Q75.82 4.23 75.10 3.85L75.10 3.85L75.10 3.85Q74.38 3.47 73.80 3.61ZM78.27 3.05L77.10 3.99L77.10 3.99Q77.27 4.34 77.29 4.93L77.29 4.93L77.29 4.93Q77.27 11.40 77.39 11.88L77.39 11.88L77.39 11.88Q77.51 12.37 77.88 12.81L77.88 12.81L79.32 11.46L79.32 11.29L79.32 11.29Q78.87 11.40 78.74 10.78L78.74 10.78L78.74 10.78Q78.62 10.17 78.70 8.27L78.70 8.27L78.70 8.27Q79.70 7.50 80.31 7.73L80.31 7.73L80.31 7.73Q80.91 7.96 80.90 9.39L80.90 9.39L80.90 9.39Q80.87 11.44 80.92 11.93L80.92 11.93L80.92 11.93Q80.96 12.42 81.50 12.78L81.50 12.78L82.89 11.53L82.89 11.35L82.89 11.35Q82.54 11.46 82.42 10.83L82.42 10.83L82.42 10.83Q82.30 10.20 82.37 8.76L82.37 8.76L82.37 8.76Q82.42 7.88 82.23 7.35L82.23 7.35L82.23 7.35Q82.04 6.82 81.42 6.58L81.42 6.58L81.42 6.58Q80.79 6.33 80.26 6.59L80.26 6.59L80.26 6.59Q79.73 6.85 79.38 7.14L79.38 7.14L79.38 7.14Q79.04 7.42 78.72 7.62L78.72 7.62L78.70 3.91L78.70 3.91Q78.61 3.32 78.27 3.05L78.27 3.05ZM85.63 6.49L85.63 6.49Q84.49 7.24 84.01 7.80L84.01 7.80L84.01 7.80Q83.54 8.35 83.34 8.92L83.34 8.92L83.34 8.92Q83.15 9.48 83.28 10.33L83.28 10.33L83.28 10.33Q83.41 11.18 84.27 11.96L84.27 11.96L84.27 11.96Q85.14 12.75 85.66 12.75L85.66 12.75L85.66 12.75Q86.18 12.76 87.29 11.74L87.29 11.74L87.29 11.74Q87.73 11.35 88.05 10.91L88.05 10.91L88.05 10.91Q88.38 10.47 88.53 9.67L88.53 9.67L88.53 9.67Q88.68 8.87 88.27 7.90L88.27 7.90L88.27 7.90Q87.23 6.30 85.63 6.49L85.63 6.49ZM85.41 7.70L85.41 7.70L85.41 7.70Q86.28 7.83 86.78 8.81L86.78 8.81L86.78 8.81Q87.29 9.79 87.12 10.78L87.12 10.78L87.12 10.78Q86.95 11.76 86.07 11.29L86.07 11.29L86.07 11.29Q85.19 10.81 84.75 10.00L84.75 10.00L84.75 10.00Q84.30 9.19 84.42 8.37L84.42 8.37L84.42 8.37Q84.54 7.56 85.41 7.70ZM90.56 6.58L89.00 7.85L89.07 8.07L89.07 8.07Q89.63 7.59 89.44 10.69L89.44 10.69L88.86 11.17L88.86 11.17Q89.07 11.39 89.46 11.69L89.46 11.69L89.46 11.69Q89.30 14.22 89.65 14.82L89.65 14.82L89.65 14.82Q90.00 15.42 90.60 15.58L90.60 15.58L91.85 14.32L91.72 14.10L91.72 14.10Q90.86 14.38 90.97 12.28L90.97 12.28L90.97 12.28Q91.74 12.50 92.44 12.09L92.44 12.09L92.44 12.09Q93.13 11.69 93.78 10.87L93.78 10.87L93.78 10.87Q94.43 10.05 94.62 9.45L94.62 9.45L94.62 9.45Q94.80 8.85 94.42 7.81L94.42 7.81L94.42 7.81Q94.05 6.77 92.51 6.49L92.51 6.49L91.08 7.72L91.08 7.72Q91.12 7.02 90.56 6.58L90.56 6.58ZM91.66 7.92L91.66 7.92Q92.65 8.03 93.07 9.19L93.07 9.19L93.07 9.19Q93.48 10.34 93.03 11.06L93.03 11.06L93.03 11.06Q92.57 11.77 91.08 10.75L91.08 10.75L91.06 8.14L91.66 7.92Z"></path></g><!----><!----></svg>